<svg width="17" height="18" viewBox="0 0 17 18" fill="none" xmlns="http://www.w3.org/2000/svg">
<path d="M0.25 9C0.25 10.0834 0.463392 11.1562 0.877994 12.1571C1.2926 13.1581 1.90029 14.0675 2.66637 14.8336C3.43245 15.5997 4.34193 16.2074 5.34286 16.622C6.3438 17.0366 7.41659 17.25 8.5 17.25C9.58341 17.25 10.6562 17.0366 11.6571 16.622C12.6581 16.2074 13.5675 15.5997 14.3336 14.8336C15.0997 14.0675 15.7074 13.1581 16.122 12.1571C16.5366 11.1562 16.75 10.0834 16.75 9C16.75 7.91659 16.5366 6.8438 16.122 5.84286C15.7074 4.84193 15.0997 3.93245 14.3336 3.16637C13.5675 2.40029 12.6581 1.7926 11.6571 1.37799C10.6562 0.963393 9.58341 0.75 8.5 0.75C7.41659 0.75 6.3438 0.963393 5.34286 1.37799C4.34193 1.7926 3.43245 2.40029 2.66637 3.16637C1.90029 3.93245 1.2926 4.84193 0.877994 5.84286C0.463392 6.8438 0.25 7.91659 0.25 9Z" fill="#E30512"/>
</svg>
