<svg width="120" height="38" viewBox="0 0 120 38" fill="none" xmlns="http://www.w3.org/2000/svg">
<path d="M47.9546 5.92334H49.3324V11.9103C49.3324 12.9517 49.2141 13.7787 48.9773 14.3913C48.7406 15.0039 48.3121 15.5034 47.6919 15.8899C47.0762 16.2716 46.2666 16.4624 45.2628 16.4624C44.2875 16.4624 43.4897 16.2951 42.8693 15.9605C42.2491 15.626 41.8064 15.143 41.5413 14.5115C41.2761 13.8753 41.1435 13.0083 41.1435 11.9103V5.92334H42.5213V11.9032C42.5213 12.8033 42.6042 13.4677 42.7699 13.8966C42.9404 14.3207 43.2291 14.6482 43.6364 14.8791C44.0484 15.11 44.5502 15.2254 45.1421 15.2254C46.1553 15.2254 46.8775 14.9969 47.3082 14.5398C47.7392 14.0827 47.9546 13.2039 47.9546 11.9032V5.92334ZM51.4702 16.2857V8.77899H52.6208V9.84633C53.1748 9.02168 53.975 8.60934 55.0213 8.60934C55.4759 8.60934 55.8926 8.69182 56.2713 8.85674C56.655 9.01696 56.9413 9.22901 57.1308 9.4929C57.3201 9.7568 57.4528 10.0702 57.5284 10.433C57.5759 10.6686 57.5995 11.081 57.5995 11.67V16.2857H56.3211V11.7195C56.3211 11.2011 56.2713 10.8147 56.1719 10.5602C56.0724 10.3011 55.895 10.0961 55.6393 9.94528C55.3882 9.78979 55.0924 9.71203 54.7515 9.71203C54.207 9.71203 53.7359 9.88403 53.3381 10.228C52.9451 10.572 52.7486 11.2247 52.7486 12.186V16.2857H51.4702ZM59.5739 7.3865V5.92334H60.8524V7.3865H59.5739ZM59.5739 16.2857V8.77899H60.8524V16.2857H59.5739ZM64.9006 16.2857L62.0313 8.77899H63.3808L65.0001 13.2745C65.1753 13.7599 65.3362 14.2641 65.483 14.7872C65.5966 14.3913 65.7553 13.9154 65.9588 13.3593L67.635 8.77899H68.949L66.0939 16.2857H64.9006ZM75.2415 13.8683L76.5626 14.0309C76.3542 14.799 75.9684 15.3951 75.405 15.8192C74.8415 16.2433 74.1217 16.4553 73.2459 16.4553C72.1426 16.4553 71.2666 16.1184 70.6179 15.4445C69.9741 14.766 69.6521 13.8164 69.6521 12.596C69.6521 11.3331 69.9788 10.3529 70.6322 9.65548C71.2855 8.95806 72.1332 8.60934 73.1748 8.60934C74.1833 8.60934 75.0071 8.95098 75.6464 9.63428C76.2855 10.3176 76.6052 11.2789 76.6052 12.5182C76.6052 12.5936 76.6028 12.7067 76.5981 12.8575H70.9731C71.0204 13.6821 71.2548 14.3136 71.6762 14.7518C72.0975 15.1901 72.6231 15.4092 73.253 15.4092C73.7217 15.4092 74.1217 15.2867 74.4531 15.0416C74.7846 14.7966 75.0473 14.4055 75.2415 13.8683ZM71.0441 11.8113H75.2557C75.199 11.1799 75.0379 10.7063 74.7728 10.3906C74.3655 9.90051 73.8377 9.65548 73.189 9.65548C72.6019 9.65548 72.1071 9.85104 71.7046 10.2422C71.307 10.6333 71.0868 11.1563 71.0441 11.8113ZM78.1606 16.2857V8.77899H79.3112V9.91701C79.6048 9.38453 79.8746 9.03346 80.1208 8.86382C80.3717 8.69417 80.6464 8.60934 80.9446 8.60934C81.3755 8.60934 81.8135 8.746 82.2586 9.01933L81.8182 10.1998C81.5057 10.016 81.1932 9.92409 80.8808 9.92409C80.6013 9.92409 80.3504 10.0089 80.1279 10.1785C79.9053 10.3435 79.7468 10.5744 79.6521 10.8712C79.5101 11.3236 79.439 11.8184 79.439 12.3556V16.2857H78.1606ZM82.5071 14.045L83.7713 13.8471C83.8424 14.3513 84.039 14.7377 84.3608 15.0063C84.6875 15.2749 85.1421 15.4092 85.7244 15.4092C86.3117 15.4092 86.7471 15.2914 87.0313 15.0558C87.3153 14.8154 87.4575 14.5351 87.4575 14.2146C87.4575 13.9272 87.3321 13.701 87.081 13.5361C86.9059 13.423 86.4702 13.2792 85.7742 13.1049C84.8368 12.8693 84.1857 12.6666 83.8212 12.497C83.4612 12.3226 83.1866 12.0847 82.9972 11.7831C82.8126 11.4768 82.7202 11.1399 82.7202 10.7723C82.7202 10.4377 82.7961 10.1291 82.9475 9.84633C83.1037 9.55887 83.3144 9.3209 83.5797 9.13242C83.7784 8.98634 84.0484 8.86382 84.3893 8.76485C84.735 8.66119 85.1042 8.60934 85.4972 8.60934C86.0891 8.60934 86.6075 8.69417 87.0526 8.86382C87.5024 9.03346 87.8339 9.26435 88.047 9.55652C88.2601 9.84396 88.4068 10.2304 88.4873 10.7158L87.2373 10.8854C87.1804 10.499 87.0148 10.1974 86.7401 9.98062C86.4702 9.76386 86.0868 9.65548 85.5895 9.65548C85.0024 9.65548 84.5833 9.75208 84.3324 9.94528C84.0815 10.1385 83.9561 10.3647 83.9561 10.6238C83.9561 10.7888 84.0081 10.9372 84.1122 11.0692C84.2164 11.2058 84.3799 11.3189 84.6022 11.4085C84.7302 11.4556 85.1066 11.564 85.7315 11.7336C86.6359 11.9739 87.2657 12.1718 87.6208 12.3274C87.9806 12.4781 88.2624 12.6996 88.4659 12.9918C88.6695 13.284 88.7713 13.6468 88.7713 14.0803C88.7713 14.5044 88.6459 14.905 88.395 15.282C88.1488 15.6542 87.7913 15.944 87.3224 16.1514C86.8537 16.354 86.3235 16.4553 85.7315 16.4553C84.7515 16.4553 84.0033 16.2527 83.4873 15.8474C82.9759 15.4422 82.6491 14.8414 82.5071 14.045ZM90.2984 7.3865V5.92334H91.5768V7.3865H90.2984ZM90.2984 16.2857V8.77899H91.5768V16.2857H90.2984ZM98.4233 16.2857V15.3385C97.9452 16.0831 97.2421 16.4553 96.3141 16.4553C95.7126 16.4553 95.1586 16.2904 94.6521 15.9605C94.1502 15.6307 93.7595 15.1712 93.4802 14.5822C93.2055 13.9884 93.0682 13.3075 93.0682 12.5394C93.0682 11.7901 93.1937 11.1116 93.4446 10.5037C93.6957 9.8911 94.0721 9.42222 94.5739 9.09706C95.0759 8.77193 95.637 8.60934 96.2571 8.60934C96.7117 8.60934 97.1166 8.70595 97.4717 8.89916C97.8268 9.08765 98.1155 9.33503 98.3381 9.64133V5.92334H99.6095V16.2857H98.4233ZM94.3822 12.5394C94.3822 13.5007 94.5857 14.2193 94.993 14.6953C95.4002 15.1712 95.8808 15.4092 96.4348 15.4092C96.9935 15.4092 97.467 15.183 97.8552 14.7306C98.2482 14.2735 98.4446 13.5785 98.4446 12.6454C98.4446 11.6181 98.2459 10.8642 97.8481 10.3835C97.4504 9.90288 96.9602 9.66254 96.3779 9.66254C95.8097 9.66254 95.3339 9.89345 94.9504 10.3553C94.5715 10.8171 94.3822 11.5451 94.3822 12.5394ZM106.548 15.3597C106.075 15.7603 105.618 16.043 105.178 16.2079C104.742 16.3729 104.273 16.4553 103.771 16.4553C102.943 16.4553 102.306 16.2551 101.861 15.8545C101.416 15.4493 101.193 14.9332 101.193 14.3065C101.193 13.939 101.276 13.6044 101.442 13.3028C101.612 12.9965 101.832 12.7515 102.102 12.5677C102.377 12.3839 102.685 12.2449 103.026 12.1506C103.277 12.0847 103.655 12.0211 104.162 11.9598C105.194 11.8373 105.954 11.6912 106.442 11.5216C106.447 11.3472 106.449 11.2365 106.449 11.1893C106.449 10.671 106.328 10.3058 106.087 10.0937C105.76 9.80627 105.275 9.66254 104.631 9.66254C104.029 9.66254 103.584 9.76858 103.296 9.98062C103.011 10.188 102.801 10.5579 102.663 11.0904L101.413 10.9207C101.527 10.3882 101.714 9.95943 101.974 9.63428C102.235 9.30442 102.611 9.0523 103.104 8.87795C103.596 8.69888 104.167 8.60934 104.815 8.60934C105.459 8.60934 105.983 8.68475 106.385 8.83553C106.788 8.98634 107.083 9.17717 107.273 9.40809C107.462 9.63428 107.595 9.92172 107.671 10.2704C107.713 10.4872 107.734 10.8783 107.734 11.4438V13.1402C107.734 14.323 107.76 15.0723 107.813 15.388C107.869 15.699 107.978 15.9982 108.139 16.2857H106.804C106.672 16.0218 106.586 15.7131 106.548 15.3597ZM106.442 12.5182C105.978 12.7067 105.282 12.8669 104.354 12.9988C103.828 13.0743 103.456 13.1591 103.239 13.2533C103.021 13.3476 102.853 13.4866 102.734 13.6704C102.616 13.8494 102.557 14.0497 102.557 14.2712C102.557 14.6105 102.685 14.8932 102.94 15.1194C103.201 15.3456 103.58 15.4587 104.077 15.4587C104.569 15.4587 105.007 15.3527 105.391 15.1406C105.774 14.9238 106.056 14.6293 106.236 14.257C106.373 13.9696 106.442 13.5455 106.442 12.9847V12.5182ZM114.617 16.2857V15.3385C114.138 16.0831 113.435 16.4553 112.507 16.4553C111.906 16.4553 111.352 16.2904 110.845 15.9605C110.343 15.6307 109.953 15.1712 109.673 14.5822C109.399 13.9884 109.262 13.3075 109.262 12.5394C109.262 11.7901 109.387 11.1116 109.638 10.5037C109.889 9.8911 110.265 9.42222 110.767 9.09706C111.269 8.77193 111.83 8.60934 112.45 8.60934C112.905 8.60934 113.31 8.70595 113.665 8.89916C114.02 9.08765 114.309 9.33503 114.531 9.64133V5.92334H115.803V16.2857H114.617ZM110.575 12.5394C110.575 13.5007 110.779 14.2193 111.186 14.6953C111.593 15.1712 112.074 15.4092 112.628 15.4092C113.187 15.4092 113.66 15.183 114.048 14.7306C114.441 14.2735 114.638 13.5785 114.638 12.6454C114.638 11.6181 114.439 10.8642 114.041 10.3835C113.644 9.90288 113.154 9.66254 112.571 9.66254C112.003 9.66254 111.527 9.89345 111.144 10.3553C110.765 10.8171 110.575 11.5451 110.575 12.5394ZM46.7551 27.4282L48.5388 27.9911C48.2653 28.9806 47.8095 29.7167 47.1715 30.1991C46.5377 30.6774 45.7319 30.9164 44.7541 30.9164C43.5444 30.9164 42.5501 30.5062 41.7711 29.6858C40.9922 28.861 40.6028 27.7354 40.6028 26.3088C40.6028 24.7997 40.9944 23.6286 41.7773 22.7958C42.5604 21.9587 43.5899 21.5402 44.8661 21.5402C45.9804 21.5402 46.8857 21.8681 47.5817 22.5237C47.9961 22.9113 48.3068 23.4679 48.5139 24.1935L46.6931 24.6265C46.5853 24.1564 46.3595 23.7853 46.0157 23.5131C45.6759 23.2411 45.2617 23.1051 44.7728 23.1051C44.0975 23.1051 43.5486 23.3463 43.1259 23.8287C42.7075 24.3111 42.4982 25.0925 42.4982 26.1727C42.4982 27.3189 42.7055 28.1354 43.1197 28.6219C43.5341 29.1085 44.0726 29.3517 44.7355 29.3517C45.2244 29.3517 45.645 29.1972 45.997 28.8879C46.3491 28.5787 46.6019 28.0921 46.7551 27.4282ZM53.933 28.6713L55.673 28.9621C55.4493 29.5971 55.095 30.0815 54.6102 30.4155C54.1297 30.7454 53.527 30.9103 52.8019 30.9103C51.6542 30.9103 50.805 30.5371 50.2539 29.7909C49.819 29.193 49.6015 28.4384 49.6015 27.5272C49.6015 26.4386 49.8873 25.5872 50.459 24.9729C51.0308 24.3544 51.7537 24.0451 52.6279 24.0451C53.6099 24.0451 54.3846 24.3688 54.9521 25.0161C55.5197 25.6594 55.7911 26.6468 55.7662 27.9786H51.3911C51.4037 28.494 51.5444 28.8961 51.8139 29.1847C52.0831 29.4692 52.4186 29.6116 52.8206 29.6116C53.0941 29.6116 53.3239 29.5372 53.5104 29.3888C53.6968 29.2404 53.8377 29.0012 53.933 28.6713ZM54.0324 26.9148C54.0199 26.4118 53.8895 26.0305 53.6408 25.7707C53.3922 25.5068 53.0899 25.3747 52.7335 25.3747C52.3524 25.3747 52.0375 25.513 51.789 25.7893C51.5404 26.0654 51.4181 26.4407 51.4222 26.9148H54.0324ZM51.8013 23.3895L52.659 21.5402H54.6166L52.9075 23.3895H51.8013ZM56.5802 28.8879L58.3328 28.6219C58.4073 28.96 58.5586 29.2176 58.7864 29.395C59.0142 29.5681 59.3333 29.6548 59.7435 29.6548C60.1951 29.6548 60.5348 29.5723 60.7626 29.4074C60.9159 29.292 60.9926 29.1373 60.9926 28.9435C60.9926 28.8116 60.9512 28.7023 60.8682 28.6158C60.7813 28.5333 60.5866 28.4569 60.2841 28.3869C58.8755 28.0776 57.9828 27.7952 57.6057 27.5395C57.0837 27.185 56.8226 26.6923 56.8226 26.0613C56.8226 25.4924 57.0484 25.0141 57.5001 24.6265C57.9517 24.2389 58.6519 24.0451 59.6006 24.0451C60.5037 24.0451 61.175 24.1915 61.6141 24.4843C62.0531 24.7769 62.3557 25.2099 62.5213 25.783L60.8746 26.0861C60.8041 25.8304 60.6695 25.6346 60.4706 25.4985C60.2759 25.3624 59.9962 25.2944 59.6317 25.2944C59.1717 25.2944 58.8424 25.3583 58.6435 25.4862C58.511 25.5769 58.4446 25.6943 58.4446 25.8387C58.4446 25.9625 58.5026 26.0676 58.6186 26.1541C58.7761 26.2696 59.3188 26.4324 60.2468 26.6427C61.179 26.8529 61.8295 27.1108 62.1982 27.4159C62.5628 27.7251 62.7451 28.156 62.7451 28.7084C62.7451 29.3105 62.4924 29.828 61.987 30.2608C61.4815 30.6938 60.7337 30.9103 59.7435 30.9103C58.8444 30.9103 58.1319 30.7289 57.6057 30.366C57.0837 30.0031 56.7419 29.5104 56.5802 28.8879ZM65.5851 26.1974L64.0004 25.9129C64.1786 25.2779 64.4851 24.8078 64.9202 24.5027C65.3552 24.1977 66.0015 24.0451 66.8591 24.0451C67.6379 24.0451 68.2181 24.1379 68.5991 24.3234C68.9802 24.5049 69.2475 24.7378 69.4008 25.0222C69.5582 25.3027 69.637 25.8201 69.637 26.5746L69.6182 28.6033C69.6182 29.1805 69.6453 29.6074 69.6991 29.8835C69.7571 30.1557 69.8628 30.4485 70.0161 30.7619H68.2884C68.2428 30.6464 68.187 30.4752 68.1206 30.2485C68.0917 30.1454 68.071 30.0773 68.0584 30.0444C67.7602 30.333 67.4411 30.5494 67.1015 30.6938C66.7617 30.8382 66.3991 30.9103 66.0139 30.9103C65.3344 30.9103 64.7979 30.7268 64.4044 30.3598C64.015 29.9928 63.8202 29.5291 63.8202 28.9683C63.8202 28.5971 63.9093 28.2673 64.0873 27.9786C64.2655 27.6859 64.5141 27.4633 64.8331 27.3108C65.1562 27.1541 65.6202 27.018 66.2252 26.9025C67.0413 26.75 67.607 26.6078 67.9217 26.4757V26.3025C67.9217 25.9686 67.839 25.7316 67.6731 25.5913C67.5075 25.4469 67.1946 25.3747 66.7348 25.3747C66.4241 25.3747 66.1817 25.4366 66.0077 25.5604C65.8337 25.68 65.6928 25.8923 65.5851 26.1974ZM67.9217 27.6075C67.6981 27.6819 67.3439 27.7704 66.8591 27.8735C66.3744 27.9767 66.0573 28.0776 65.9082 28.1766C65.6804 28.3375 65.5664 28.5414 65.5664 28.789C65.5664 29.0322 65.6577 29.2424 65.8399 29.4198C66.0222 29.5971 66.2542 29.6858 66.5359 29.6858C66.8508 29.6858 67.1512 29.5826 67.437 29.3765C67.6482 29.2198 67.7872 29.028 67.8533 28.8013C67.899 28.6529 67.9217 28.3704 67.9217 27.9539V27.6075ZM73.0362 30.7619H71.2901V24.1935H72.9121V25.1274C73.1895 24.6862 73.4382 24.3956 73.6577 24.2554C73.8815 24.1151 74.1342 24.0451 74.4159 24.0451C74.8137 24.0451 75.1968 24.1544 75.5655 24.3728L75.025 25.8881C74.7308 25.6985 74.4573 25.6036 74.2046 25.6036C73.9602 25.6036 73.753 25.6717 73.5831 25.8078C73.4133 25.9397 73.2786 26.1809 73.1791 26.5314C73.0839 26.8819 73.0362 27.6158 73.0362 28.7332V30.7619ZM82.2026 30.7619L78.9462 21.6949H80.9412L83.2466 28.4055L85.4777 21.6949H87.429L84.1664 30.7619H82.2026ZM88.9515 26.1974L87.367 25.9129C87.545 25.2779 87.8517 24.8078 88.2866 24.5027C88.7217 24.1977 89.3679 24.0451 90.2255 24.0451C91.0044 24.0451 91.5844 24.1379 91.9657 24.3234C92.3468 24.5049 92.6141 24.7378 92.7673 25.0222C92.9248 25.3027 93.0035 25.8201 93.0035 26.5746L92.9848 28.6033C92.9848 29.1805 93.0117 29.6074 93.0655 29.8835C93.1235 30.1557 93.2292 30.4485 93.3826 30.7619H91.655C91.6093 30.6464 91.5533 30.4752 91.4872 30.2485C91.4581 30.1454 91.4373 30.0773 91.425 30.0444C91.1266 30.333 90.8077 30.5494 90.4679 30.6938C90.1282 30.8382 89.7657 30.9103 89.3804 30.9103C88.701 30.9103 88.1644 30.7268 87.7708 30.3598C87.3813 29.9928 87.1866 29.5291 87.1866 28.9683C87.1866 28.5971 87.2757 28.2673 87.4539 27.9786C87.6321 27.6859 87.8806 27.4633 88.1997 27.3108C88.5228 27.1541 88.9868 27.018 89.5917 26.9025C90.4079 26.75 90.9733 26.6078 91.2882 26.4757V26.3025C91.2882 25.9686 91.2053 25.7316 91.0397 25.5913C90.8739 25.4469 90.5611 25.3747 90.1013 25.3747C89.7906 25.3747 89.5482 25.4366 89.3742 25.5604C89.2002 25.68 89.0593 25.8923 88.9515 26.1974ZM91.2882 27.6075C91.0644 27.6819 90.7102 27.7704 90.2255 27.8735C89.7408 27.9767 89.4239 28.0776 89.2748 28.1766C89.0468 28.3375 88.933 28.5414 88.933 28.789C88.933 29.0322 89.0241 29.2424 89.2064 29.4198C89.3886 29.5971 89.6206 29.6858 89.9024 29.6858C90.2173 29.6858 90.5177 29.5826 90.8035 29.3765C91.0148 29.2198 91.1535 29.028 91.2199 28.8013C91.2655 28.6529 91.2882 28.3704 91.2882 27.9539V27.6075ZM94.7312 30.7619V21.6949H96.4773V30.7619H94.7312ZM98.2733 30.7619V21.6949H100.02V30.7619H98.2733ZM105.638 28.6713L107.378 28.9621C107.154 29.5971 106.8 30.0815 106.315 30.4155C105.834 30.7454 105.232 30.9103 104.506 30.9103C103.359 30.9103 102.51 30.5371 101.958 29.7909C101.524 29.193 101.306 28.4384 101.306 27.5272C101.306 26.4386 101.592 25.5872 102.164 24.9729C102.735 24.3544 103.458 24.0451 104.332 24.0451C105.314 24.0451 106.089 24.3688 106.657 25.0161C107.224 25.6594 107.496 26.6468 107.471 27.9786H103.096C103.108 28.494 103.249 28.8961 103.518 29.1847C103.788 29.4692 104.123 29.6116 104.525 29.6116C104.799 29.6116 105.028 29.5372 105.215 29.3888C105.401 29.2404 105.542 29.0012 105.638 28.6713ZM105.737 26.9148C105.724 26.4118 105.594 26.0305 105.345 25.7707C105.097 25.5068 104.794 25.3747 104.438 25.3747C104.057 25.3747 103.742 25.513 103.494 25.7893C103.245 26.0654 103.123 26.4407 103.127 26.9148H105.737ZM108.863 23.3028V21.6949H110.609V23.3028H108.863ZM110.609 24.1935V30.5578C110.609 31.3948 110.553 31.9844 110.441 32.3266C110.334 32.6731 110.122 32.9431 109.807 33.1369C109.497 33.3307 109.099 33.4275 108.614 33.4275C108.44 33.4275 108.252 33.411 108.049 33.3781C107.85 33.3493 107.634 33.3039 107.402 33.242L107.707 31.7577C107.79 31.7741 107.868 31.7864 107.943 31.7948C108.014 31.8071 108.08 31.8134 108.142 31.8134C108.32 31.8134 108.465 31.7741 108.577 31.6958C108.693 31.6216 108.77 31.5309 108.807 31.4236C108.844 31.3165 108.863 30.9948 108.863 30.4588V24.1935H110.609ZM112.038 27.3849C112.038 26.8077 112.181 26.2489 112.467 25.7088C112.753 25.1686 113.157 24.7564 113.679 24.4718C114.205 24.1873 114.792 24.0451 115.438 24.0451C116.436 24.0451 117.254 24.3688 117.892 25.0161C118.53 25.6594 118.85 26.4737 118.85 27.4591C118.85 28.4529 118.526 29.2775 117.88 29.9331C117.238 30.5845 116.428 30.9103 115.45 30.9103C114.845 30.9103 114.267 30.7742 113.716 30.502C113.17 30.2301 112.753 29.8321 112.467 29.3085C112.181 28.7806 112.038 28.1395 112.038 27.3849ZM113.828 27.4778C113.828 28.1292 113.984 28.6281 114.294 28.9744C114.605 29.3208 114.988 29.4939 115.444 29.4939C115.9 29.4939 116.281 29.3208 116.587 28.9744C116.898 28.6281 117.054 28.125 117.054 27.4653C117.054 26.8222 116.898 26.3273 116.587 25.9809C116.281 25.6346 115.9 25.4614 115.444 25.4614C114.988 25.4614 114.605 25.6346 114.294 25.9809C113.984 26.3273 113.828 26.8262 113.828 27.4778Z" fill="white"/>
<path fill-rule="evenodd" clip-rule="evenodd" d="M27.2349 9.21902V28.6569C29.5273 26.3659 31.2567 23.8151 31.2567 21.2722V6.7076C26.1778 7.1811 21.0571 6.9878 16.0305 6.13289C8.46165 4.75516 3.81256 2.92079 0 0C9.081 9.44733 27.2349 9.21902 27.2349 9.21902ZM31.2567 3.25146V0C26.1904 1.49439 20.9276 2.253 15.6364 2.25161C10.3397 2.25454 5.07136 1.49591 0 0C0 0 11.8962 7.1406 31.2727 3.25146H31.2567ZM19.3925 13.2735V34.5299C20.6233 33.7977 22.0309 32.8687 23.4144 31.8375V11.5415C5.59016 9.8882 0 0 0 0C6.08885 12.1398 19.3925 13.2735 19.3925 13.2735ZM15.6364 36.6163V15.2653C2.02695 9.65989 0 0 0 0V21.2565C0 28.964 15.6364 36.6163 15.6364 36.6163Z" fill="#E30512"/>
</svg>
