<svg width="316" height="84" viewBox="0 0 316 84" fill="none" xmlns="http://www.w3.org/2000/svg">
<path d="M2.125 22V6H11.4063V7.3125H3.58594V13.3359H10.9141V14.6484H3.58594V20.6875H11.5625V22H2.125ZM22.9609 12.6328L21.6875 12.9922C21.5625 12.6328 21.3854 12.3073 21.1563 12.0156C20.9271 11.724 20.6276 11.4922 20.2578 11.3203C19.8932 11.1484 19.4401 11.0625 18.8984 11.0625C18.0859 11.0625 17.4193 11.2552 16.8984 11.6406C16.3776 12.026 16.1172 12.5234 16.1172 13.1328C16.1172 13.6484 16.2943 14.0677 16.6484 14.3906C17.0078 14.7083 17.5599 14.9609 18.3047 15.1484L20.1172 15.5937C21.1224 15.8385 21.875 16.2266 22.375 16.7578C22.8802 17.2891 23.1328 17.9557 23.1328 18.7578C23.1328 19.4349 22.9453 20.0365 22.5703 20.5625C22.1953 21.0885 21.6719 21.5026 21 21.8047C20.3333 22.1016 19.5599 22.25 18.6797 22.25C17.5078 22.25 16.5417 21.987 15.7813 21.4609C15.0208 20.9297 14.5339 20.1641 14.3203 19.1641L15.6563 18.8359C15.8281 19.5495 16.1641 20.0885 16.6641 20.4531C17.1693 20.8177 17.8333 21 18.6563 21C19.5781 21 20.3151 20.7943 20.8672 20.3828C21.4193 19.9661 21.6953 19.4453 21.6953 18.8203C21.6953 18.3359 21.5339 17.9297 21.2109 17.6016C20.888 17.2682 20.3984 17.0234 19.7422 16.8672L17.7813 16.3984C16.7396 16.1484 15.9687 15.7526 15.4688 15.2109C14.9688 14.6693 14.7188 13.9974 14.7188 13.1953C14.7188 12.5339 14.8984 11.9531 15.2578 11.4531C15.6172 10.9479 16.112 10.5521 16.7422 10.2656C17.3724 9.97917 18.0911 9.83594 18.8984 9.83594C19.9974 9.83594 20.875 10.0859 21.5313 10.5859C22.1927 11.0807 22.6693 11.763 22.9609 12.6328ZM30.9043 10V11.2109H25.1777V10H30.9043ZM26.9668 7.125H28.3652V18.8672C28.3652 19.3672 28.4512 19.7604 28.623 20.0469C28.7949 20.3281 29.0189 20.5286 29.2949 20.6484C29.571 20.763 29.8652 20.8203 30.1777 20.8203C30.36 20.8203 30.5163 20.8099 30.6465 20.7891C30.7767 20.763 30.8913 20.737 30.9902 20.7109L31.2871 21.9687C31.1517 22.0208 30.985 22.0677 30.7871 22.1094C30.5892 22.1563 30.3444 22.1797 30.0527 22.1797C29.5423 22.1797 29.0501 22.0677 28.5762 21.8437C28.1074 21.6198 27.722 21.2865 27.4199 20.8437C27.1178 20.401 26.9668 19.8516 26.9668 19.1953V7.125ZM38.7852 22.25C37.6654 22.25 36.6966 21.9896 35.8789 21.4687C35.0612 20.9427 34.4284 20.2161 33.9805 19.2891C33.5378 18.3568 33.3164 17.2839 33.3164 16.0703C33.3164 14.862 33.5378 13.7891 33.9805 12.8516C34.4284 11.9089 35.0456 11.1719 35.832 10.6406C36.6237 10.1042 37.5378 9.83594 38.5742 9.83594C39.2253 9.83594 39.8529 9.95573 40.457 10.1953C41.0612 10.4297 41.6029 10.7917 42.082 11.2812C42.5664 11.7656 42.9492 12.3776 43.2305 13.1172C43.5117 13.8516 43.6523 14.7214 43.6523 15.7266V16.4141H34.2773V15.1875H42.2305C42.2305 14.4167 42.0742 13.724 41.7617 13.1094C41.4544 12.4896 41.0247 12 40.4727 11.6406C39.9258 11.2812 39.293 11.1016 38.5742 11.1016C37.8138 11.1016 37.1445 11.3047 36.5664 11.7109C35.9883 12.1172 35.5352 12.6536 35.207 13.3203C34.8841 13.987 34.7201 14.7161 34.7148 15.5078V16.2422C34.7148 17.1953 34.8789 18.0286 35.207 18.7422C35.5404 19.4505 36.0117 20 36.6211 20.3906C37.2305 20.7812 37.9518 20.9766 38.7852 20.9766C39.3529 20.9766 39.8503 20.888 40.2773 20.7109C40.7096 20.5339 41.0716 20.2969 41.3633 20C41.6602 19.6979 41.8841 19.3672 42.0352 19.0078L43.3555 19.4375C43.1732 19.9427 42.8737 20.4089 42.457 20.8359C42.0456 21.263 41.5299 21.6068 40.9102 21.8672C40.2956 22.1224 39.5872 22.25 38.7852 22.25ZM57.7559 22.25C56.6361 22.25 55.6673 21.9896 54.8496 21.4687C54.0319 20.9427 53.3991 20.2161 52.9512 19.2891C52.5085 18.3568 52.2871 17.2839 52.2871 16.0703C52.2871 14.862 52.5085 13.7891 52.9512 12.8516C53.3991 11.9089 54.0163 11.1719 54.8027 10.6406C55.5944 10.1042 56.5085 9.83594 57.5449 9.83594C58.196 9.83594 58.8236 9.95573 59.4277 10.1953C60.0319 10.4297 60.5736 10.7917 61.0527 11.2812C61.5371 11.7656 61.9199 12.3776 62.2012 13.1172C62.4824 13.8516 62.623 14.7214 62.623 15.7266V16.4141H53.248V15.1875H61.2012C61.2012 14.4167 61.0449 13.724 60.7324 13.1094C60.4251 12.4896 59.9954 12 59.4434 11.6406C58.8965 11.2812 58.2637 11.1016 57.5449 11.1016C56.7845 11.1016 56.1152 11.3047 55.5371 11.7109C54.959 12.1172 54.5059 12.6536 54.1777 13.3203C53.8548 13.987 53.6908 14.7161 53.6855 15.5078V16.2422C53.6855 17.1953 53.8496 18.0286 54.1777 18.7422C54.5111 19.4505 54.9824 20 55.5918 20.3906C56.2012 20.7812 56.9225 20.9766 57.7559 20.9766C58.3236 20.9766 58.821 20.888 59.248 20.7109C59.6803 20.5339 60.0423 20.2969 60.334 20C60.6309 19.6979 60.8548 19.3672 61.0059 19.0078L62.3262 19.4375C62.1439 19.9427 61.8444 20.4089 61.4277 20.8359C61.0163 21.263 60.5007 21.6068 59.8809 21.8672C59.2663 22.1224 58.5579 22.25 57.7559 22.25ZM73.75 12.6328L72.4766 12.9922C72.3516 12.6328 72.1745 12.3073 71.9453 12.0156C71.7161 11.724 71.4167 11.4922 71.0469 11.3203C70.6823 11.1484 70.2292 11.0625 69.6875 11.0625C68.875 11.0625 68.2083 11.2552 67.6875 11.6406C67.1667 12.026 66.9063 12.5234 66.9063 13.1328C66.9063 13.6484 67.0833 14.0677 67.4375 14.3906C67.7969 14.7083 68.349 14.9609 69.0938 15.1484L70.9063 15.5937C71.9115 15.8385 72.6641 16.2266 73.1641 16.7578C73.6693 17.2891 73.9219 17.9557 73.9219 18.7578C73.9219 19.4349 73.7344 20.0365 73.3594 20.5625C72.9844 21.0885 72.4609 21.5026 71.7891 21.8047C71.1224 22.1016 70.349 22.25 69.4688 22.25C68.2969 22.25 67.3307 21.987 66.5703 21.4609C65.8099 20.9297 65.3229 20.1641 65.1094 19.1641L66.4453 18.8359C66.6172 19.5495 66.9531 20.0885 67.4531 20.4531C67.9583 20.8177 68.6224 21 69.4453 21C70.3672 21 71.1042 20.7943 71.6563 20.3828C72.2083 19.9661 72.4844 19.4453 72.4844 18.8203C72.4844 18.3359 72.3229 17.9297 72 17.6016C71.6771 17.2682 71.1875 17.0234 70.5312 16.8672L68.5703 16.3984C67.5286 16.1484 66.7578 15.7526 66.2578 15.2109C65.7578 14.6693 65.5078 13.9974 65.5078 13.1953C65.5078 12.5339 65.6875 11.9531 66.0469 11.4531C66.4063 10.9479 66.901 10.5521 67.5313 10.2656C68.1615 9.97917 68.8802 9.83594 69.6875 9.83594C70.7865 9.83594 71.6641 10.0859 72.3203 10.5859C72.9818 11.0807 73.4583 11.763 73.75 12.6328ZM91.2168 12.6328L89.9434 12.9922C89.8184 12.6328 89.6413 12.3073 89.4121 12.0156C89.1829 11.724 88.8835 11.4922 88.5137 11.3203C88.1491 11.1484 87.696 11.0625 87.1543 11.0625C86.3418 11.0625 85.6751 11.2552 85.1543 11.6406C84.6335 12.026 84.373 12.5234 84.373 13.1328C84.373 13.6484 84.5501 14.0677 84.9043 14.3906C85.2637 14.7083 85.8158 14.9609 86.5605 15.1484L88.373 15.5937C89.3783 15.8385 90.1309 16.2266 90.6309 16.7578C91.1361 17.2891 91.3887 17.9557 91.3887 18.7578C91.3887 19.4349 91.2012 20.0365 90.8262 20.5625C90.4512 21.0885 89.9277 21.5026 89.2559 21.8047C88.5892 22.1016 87.8158 22.25 86.9355 22.25C85.7637 22.25 84.7975 21.987 84.0371 21.4609C83.2767 20.9297 82.7897 20.1641 82.5762 19.1641L83.9121 18.8359C84.084 19.5495 84.4199 20.0885 84.9199 20.4531C85.4251 20.8177 86.0892 21 86.9121 21C87.834 21 88.571 20.7943 89.123 20.3828C89.6751 19.9661 89.9512 19.4453 89.9512 18.8203C89.9512 18.3359 89.7897 17.9297 89.4668 17.6016C89.1439 17.2682 88.6543 17.0234 87.998 16.8672L86.0371 16.3984C84.9954 16.1484 84.2246 15.7526 83.7246 15.2109C83.2246 14.6693 82.9746 13.9974 82.9746 13.1953C82.9746 12.5339 83.1543 11.9531 83.5137 11.4531C83.873 10.9479 84.3678 10.5521 84.998 10.2656C85.6283 9.97917 86.347 9.83594 87.1543 9.83594C88.2533 9.83594 89.1309 10.0859 89.7871 10.5859C90.4486 11.0807 90.9251 11.763 91.2168 12.6328ZM99.0977 22.25C98.0612 22.25 97.1445 21.987 96.3477 21.4609C95.556 20.9349 94.9362 20.2083 94.4883 19.2812C94.0404 18.349 93.8164 17.2734 93.8164 16.0547C93.8164 14.8255 94.0404 13.7448 94.4883 12.8125C94.9362 11.875 95.556 11.1458 96.3477 10.625C97.1445 10.099 98.0612 9.83594 99.0977 9.83594C100.134 9.83594 101.048 10.099 101.84 10.625C102.632 11.151 103.251 11.8802 103.699 12.8125C104.152 13.7448 104.379 14.8255 104.379 16.0547C104.379 17.2734 104.155 18.349 103.707 19.2812C103.259 20.2083 102.637 20.9349 101.84 21.4609C101.048 21.987 100.134 22.25 99.0977 22.25ZM99.0977 20.9766C99.931 20.9766 100.637 20.7526 101.215 20.3047C101.793 19.8568 102.23 19.2604 102.527 18.5156C102.829 17.7708 102.98 16.9505 102.98 16.0547C102.98 15.1589 102.829 14.3359 102.527 13.5859C102.23 12.8359 101.793 12.2344 101.215 11.7812C100.637 11.3281 99.931 11.1016 99.0977 11.1016C98.2695 11.1016 97.5638 11.3281 96.9805 11.7812C96.4023 12.2344 95.9622 12.8359 95.6602 13.5859C95.3633 14.3359 95.2148 15.1589 95.2148 16.0547C95.2148 16.9505 95.3633 17.7708 95.6602 18.5156C95.9622 19.2604 96.4023 19.8568 96.9805 20.3047C97.5586 20.7526 98.2643 20.9766 99.0977 20.9766ZM108.822 6V22H107.432V6H108.822ZM117.166 22.25C116.13 22.25 115.213 21.987 114.416 21.4609C113.624 20.9349 113.005 20.2083 112.557 19.2812C112.109 18.349 111.885 17.2734 111.885 16.0547C111.885 14.8255 112.109 13.7448 112.557 12.8125C113.005 11.875 113.624 11.1458 114.416 10.625C115.213 10.099 116.13 9.83594 117.166 9.83594C118.202 9.83594 119.117 10.099 119.908 10.625C120.7 11.151 121.32 11.8802 121.768 12.8125C122.221 13.7448 122.447 14.8255 122.447 16.0547C122.447 17.2734 122.223 18.349 121.775 19.2812C121.327 20.2083 120.705 20.9349 119.908 21.4609C119.117 21.987 118.202 22.25 117.166 22.25ZM117.166 20.9766C117.999 20.9766 118.705 20.7526 119.283 20.3047C119.861 19.8568 120.299 19.2604 120.596 18.5156C120.898 17.7708 121.049 16.9505 121.049 16.0547C121.049 15.1589 120.898 14.3359 120.596 13.5859C120.299 12.8359 119.861 12.2344 119.283 11.7812C118.705 11.3281 117.999 11.1016 117.166 11.1016C116.338 11.1016 115.632 11.3281 115.049 11.7812C114.471 12.2344 114.031 12.8359 113.729 13.5859C113.432 14.3359 113.283 15.1589 113.283 16.0547C113.283 16.9505 113.432 17.7708 113.729 18.5156C114.031 19.2604 114.471 19.8568 115.049 20.3047C115.627 20.7526 116.333 20.9766 117.166 20.9766ZM136.539 22.25C135.419 22.25 134.451 21.9896 133.633 21.4687C132.815 20.9427 132.182 20.2161 131.734 19.2891C131.292 18.3568 131.07 17.2839 131.07 16.0703C131.07 14.862 131.292 13.7891 131.734 12.8516C132.182 11.9089 132.799 11.1719 133.586 10.6406C134.378 10.1042 135.292 9.83594 136.328 9.83594C136.979 9.83594 137.607 9.95573 138.211 10.1953C138.815 10.4297 139.357 10.7917 139.836 11.2812C140.32 11.7656 140.703 12.3776 140.984 13.1172C141.266 13.8516 141.406 14.7214 141.406 15.7266V16.4141H132.031V15.1875H139.984C139.984 14.4167 139.828 13.724 139.516 13.1094C139.208 12.4896 138.779 12 138.227 11.6406C137.68 11.2812 137.047 11.1016 136.328 11.1016C135.568 11.1016 134.898 11.3047 134.32 11.7109C133.742 12.1172 133.289 12.6536 132.961 13.3203C132.638 13.987 132.474 14.7161 132.469 15.5078V16.2422C132.469 17.1953 132.633 18.0286 132.961 18.7422C133.294 19.4505 133.766 20 134.375 20.3906C134.984 20.7812 135.706 20.9766 136.539 20.9766C137.107 20.9766 137.604 20.888 138.031 20.7109C138.464 20.5339 138.826 20.2969 139.117 20C139.414 19.6979 139.638 19.3672 139.789 19.0078L141.109 19.4375C140.927 19.9427 140.628 20.4089 140.211 20.8359C139.799 21.263 139.284 21.6068 138.664 21.8672C138.049 22.1224 137.341 22.25 136.539 22.25ZM145.861 6V22H144.471V6H145.861ZM155.744 22V10H157.143V22H155.744ZM156.455 7.9375C156.169 7.9375 155.924 7.84115 155.721 7.64844C155.518 7.45052 155.416 7.21354 155.416 6.9375C155.416 6.66146 155.518 6.42708 155.721 6.23438C155.924 6.03646 156.169 5.9375 156.455 5.9375C156.742 5.9375 156.986 6.03646 157.189 6.23438C157.393 6.42708 157.494 6.66146 157.494 6.9375C157.494 7.21354 157.393 7.45052 157.189 7.64844C156.986 7.84115 156.742 7.9375 156.455 7.9375ZM162.211 14.5V22H160.82V10H162.172V11.8828H162.297C162.578 11.2682 163.016 10.776 163.609 10.4063C164.208 10.0313 164.948 9.84375 165.828 9.84375C166.635 9.84375 167.344 10.013 167.953 10.3516C168.568 10.6849 169.044 11.1771 169.383 11.8281C169.727 12.4792 169.898 13.2786 169.898 14.2266V22H168.508V14.3125C168.508 13.3281 168.232 12.5495 167.68 11.9766C167.133 11.4036 166.398 11.1172 165.477 11.1172C164.846 11.1172 164.286 11.2526 163.797 11.5234C163.307 11.7943 162.919 12.1849 162.633 12.6953C162.352 13.2005 162.211 13.8021 162.211 14.5ZM173.576 22V10H174.975V22H173.576ZM174.287 7.9375C174.001 7.9375 173.756 7.84115 173.553 7.64844C173.35 7.45052 173.248 7.21354 173.248 6.9375C173.248 6.66146 173.35 6.42708 173.553 6.23438C173.756 6.03646 174.001 5.9375 174.287 5.9375C174.574 5.9375 174.818 6.03646 175.021 6.23438C175.225 6.42708 175.326 6.66146 175.326 6.9375C175.326 7.21354 175.225 7.45052 175.021 7.64844C174.818 7.84115 174.574 7.9375 174.287 7.9375ZM183.34 22.25C182.267 22.25 181.332 21.9818 180.535 21.4453C179.743 20.9089 179.129 20.1745 178.691 19.2422C178.254 18.3099 178.035 17.2474 178.035 16.0547C178.035 14.8516 178.257 13.7812 178.699 12.8437C179.147 11.9062 179.767 11.1719 180.559 10.6406C181.35 10.1042 182.27 9.83594 183.316 9.83594C184.118 9.83594 184.845 9.99219 185.496 10.3047C186.147 10.612 186.684 11.0469 187.105 11.6094C187.533 12.1667 187.801 12.8177 187.91 13.5625H186.504C186.358 12.8854 186.007 12.3073 185.449 11.8281C184.897 11.3437 184.194 11.1016 183.34 11.1016C182.574 11.1016 181.897 11.3099 181.309 11.7266C180.72 12.138 180.259 12.7135 179.926 13.4531C179.598 14.1875 179.434 15.0391 179.434 16.0078C179.434 16.9818 179.595 17.8437 179.918 18.5937C180.241 19.3385 180.694 19.9219 181.277 20.3437C181.866 20.7656 182.553 20.9766 183.34 20.9766C183.871 20.9766 184.355 20.8776 184.793 20.6797C185.236 20.4766 185.605 20.1901 185.902 19.8203C186.204 19.4505 186.408 19.0104 186.512 18.5H187.918C187.814 19.224 187.556 19.8698 187.145 20.4375C186.738 21 186.21 21.4427 185.559 21.7656C184.913 22.0885 184.173 22.25 183.34 22.25ZM190.914 22V10H192.313V22H190.914ZM191.625 7.9375C191.339 7.9375 191.094 7.84115 190.891 7.64844C190.688 7.45052 190.586 7.21354 190.586 6.9375C190.586 6.66146 190.688 6.42708 190.891 6.23438C191.094 6.03646 191.339 5.9375 191.625 5.9375C191.911 5.9375 192.156 6.03646 192.359 6.23438C192.563 6.42708 192.664 6.66146 192.664 6.9375C192.664 7.21354 192.563 7.45052 192.359 7.64844C192.156 7.84115 191.911 7.9375 191.625 7.9375ZM200.654 22.25C199.618 22.25 198.701 21.987 197.904 21.4609C197.113 20.9349 196.493 20.2083 196.045 19.2812C195.597 18.349 195.373 17.2734 195.373 16.0547C195.373 14.8255 195.597 13.7448 196.045 12.8125C196.493 11.875 197.113 11.1458 197.904 10.625C198.701 10.099 199.618 9.83594 200.654 9.83594C201.691 9.83594 202.605 10.099 203.396 10.625C204.188 11.151 204.808 11.8802 205.256 12.8125C205.709 13.7448 205.936 14.8255 205.936 16.0547C205.936 17.2734 205.712 18.349 205.264 19.2812C204.816 20.2083 204.193 20.9349 203.396 21.4609C202.605 21.987 201.691 22.25 200.654 22.25ZM200.654 20.9766C201.488 20.9766 202.193 20.7526 202.771 20.3047C203.35 19.8568 203.787 19.2604 204.084 18.5156C204.386 17.7708 204.537 16.9505 204.537 16.0547C204.537 15.1589 204.386 14.3359 204.084 13.5859C203.787 12.8359 203.35 12.2344 202.771 11.7812C202.193 11.3281 201.488 11.1016 200.654 11.1016C199.826 11.1016 199.12 11.3281 198.537 11.7812C197.959 12.2344 197.519 12.8359 197.217 13.5859C196.92 14.3359 196.771 15.1589 196.771 16.0547C196.771 16.9505 196.92 17.7708 197.217 18.5156C197.519 19.2604 197.959 19.8568 198.537 20.3047C199.115 20.7526 199.821 20.9766 200.654 20.9766ZM219.496 22.25C218.512 22.25 217.65 21.9896 216.91 21.4687C216.171 20.9479 215.592 20.2214 215.176 19.2891C214.764 18.3568 214.559 17.2708 214.559 16.0313C214.559 14.7969 214.764 13.7161 215.176 12.7891C215.592 11.8568 216.173 11.1328 216.918 10.6172C217.663 10.0964 218.53 9.83594 219.52 9.83594C220.249 9.83594 220.855 9.96615 221.34 10.2266C221.824 10.4818 222.212 10.7995 222.504 11.1797C222.796 11.5599 223.022 11.9297 223.184 12.2891H223.309V6H224.707V22H223.348V19.7734H223.184C223.022 20.138 222.793 20.513 222.496 20.8984C222.199 21.2786 221.806 21.599 221.316 21.8594C220.832 22.1198 220.225 22.25 219.496 22.25ZM219.66 20.9766C220.436 20.9766 221.098 20.7656 221.645 20.3437C222.191 19.9167 222.608 19.3307 222.895 18.5859C223.186 17.8359 223.332 16.9766 223.332 16.0078C223.332 15.0495 223.189 14.2031 222.902 13.4687C222.616 12.7292 222.199 12.151 221.652 11.7344C221.105 11.3125 220.441 11.1016 219.66 11.1016C218.858 11.1016 218.181 11.3203 217.629 11.7578C217.082 12.1901 216.665 12.776 216.379 13.5156C216.098 14.2552 215.957 15.0859 215.957 16.0078C215.957 16.9401 216.1 17.7812 216.387 18.5313C216.673 19.2812 217.09 19.8776 217.637 20.3203C218.189 20.7578 218.863 20.9766 219.66 20.9766ZM233.52 22.25C232.4 22.25 231.431 21.9896 230.613 21.4687C229.796 20.9427 229.163 20.2161 228.715 19.2891C228.272 18.3568 228.051 17.2839 228.051 16.0703C228.051 14.862 228.272 13.7891 228.715 12.8516C229.163 11.9089 229.78 11.1719 230.566 10.6406C231.358 10.1042 232.272 9.83594 233.309 9.83594C233.96 9.83594 234.587 9.95573 235.191 10.1953C235.796 10.4297 236.337 10.7917 236.816 11.2812C237.301 11.7656 237.684 12.3776 237.965 13.1172C238.246 13.8516 238.387 14.7214 238.387 15.7266V16.4141H229.012V15.1875H236.965C236.965 14.4167 236.809 13.724 236.496 13.1094C236.189 12.4896 235.759 12 235.207 11.6406C234.66 11.2812 234.027 11.1016 233.309 11.1016C232.548 11.1016 231.879 11.3047 231.301 11.7109C230.723 12.1172 230.27 12.6536 229.941 13.3203C229.618 13.987 229.454 14.7161 229.449 15.5078V16.2422C229.449 17.1953 229.613 18.0286 229.941 18.7422C230.275 19.4505 230.746 20 231.355 20.3906C231.965 20.7812 232.686 20.9766 233.52 20.9766C234.087 20.9766 234.585 20.888 235.012 20.7109C235.444 20.5339 235.806 20.2969 236.098 20C236.395 19.6979 236.618 19.3672 236.77 19.0078L238.09 19.4375C237.908 19.9427 237.608 20.4089 237.191 20.8359C236.78 21.263 236.264 21.6068 235.645 21.8672C235.03 22.1224 234.322 22.25 233.52 22.25ZM252.365 10V11.2109H246.639V10H252.365ZM248.428 7.125H249.826V18.8672C249.826 19.3672 249.912 19.7604 250.084 20.0469C250.256 20.3281 250.48 20.5286 250.756 20.6484C251.032 20.763 251.326 20.8203 251.639 20.8203C251.821 20.8203 251.977 20.8099 252.107 20.7891C252.238 20.763 252.352 20.737 252.451 20.7109L252.748 21.9687C252.613 22.0208 252.446 22.0677 252.248 22.1094C252.05 22.1563 251.805 22.1797 251.514 22.1797C251.003 22.1797 250.511 22.0677 250.037 21.8437C249.568 21.6198 249.183 21.2865 248.881 20.8437C248.579 20.401 248.428 19.8516 248.428 19.1953V7.125ZM263.148 17.4141V10H264.539V22H263.148V20.0078H263.039C262.758 20.6224 262.313 21.1354 261.703 21.5469C261.094 21.9531 260.349 22.1563 259.469 22.1563C258.703 22.1563 258.023 21.9896 257.43 21.6562C256.836 21.3177 256.37 20.8229 256.031 20.1719C255.693 19.5208 255.523 18.7214 255.523 17.7734V10H256.914V17.6875C256.914 18.625 257.19 19.3802 257.742 19.9531C258.294 20.5208 259.003 20.8047 259.867 20.8047C260.409 20.8047 260.93 20.6745 261.43 20.4141C261.93 20.1536 262.341 19.7734 262.664 19.2734C262.987 18.7682 263.148 18.1484 263.148 17.4141ZM283.697 10L279.314 22H277.83L273.447 10H274.955L278.518 20.1641H278.627L282.189 10H283.697ZM286.434 22V10H287.832V22H286.434ZM287.145 7.9375C286.858 7.9375 286.613 7.84115 286.41 7.64844C286.207 7.45052 286.105 7.21354 286.105 6.9375C286.105 6.66146 286.207 6.42708 286.41 6.23438C286.613 6.03646 286.858 5.9375 287.145 5.9375C287.431 5.9375 287.676 6.03646 287.879 6.23438C288.082 6.42708 288.184 6.66146 288.184 6.9375C288.184 7.21354 288.082 7.45052 287.879 7.64844C287.676 7.84115 287.431 7.9375 287.145 7.9375ZM295.83 22.25C294.846 22.25 293.984 21.9896 293.244 21.4687C292.505 20.9479 291.926 20.2214 291.51 19.2891C291.098 18.3568 290.893 17.2708 290.893 16.0313C290.893 14.7969 291.098 13.7161 291.51 12.7891C291.926 11.8568 292.507 11.1328 293.252 10.6172C293.997 10.0964 294.864 9.83594 295.854 9.83594C296.583 9.83594 297.189 9.96615 297.674 10.2266C298.158 10.4818 298.546 10.7995 298.838 11.1797C299.13 11.5599 299.356 11.9297 299.518 12.2891H299.643V6H301.041V22H299.682V19.7734H299.518C299.356 20.138 299.127 20.513 298.83 20.8984C298.533 21.2786 298.14 21.599 297.65 21.8594C297.166 22.1198 296.559 22.25 295.83 22.25ZM295.994 20.9766C296.77 20.9766 297.432 20.7656 297.979 20.3437C298.525 19.9167 298.942 19.3307 299.229 18.5859C299.52 17.8359 299.666 16.9766 299.666 16.0078C299.666 15.0495 299.523 14.2031 299.236 13.4687C298.95 12.7292 298.533 12.151 297.986 11.7344C297.439 11.3125 296.775 11.1016 295.994 11.1016C295.192 11.1016 294.515 11.3203 293.963 11.7578C293.416 12.1901 292.999 12.776 292.713 13.5156C292.432 14.2552 292.291 15.0859 292.291 16.0078C292.291 16.9401 292.434 17.7812 292.721 18.5313C293.007 19.2812 293.424 19.8776 293.971 20.3203C294.523 20.7578 295.197 20.9766 295.994 20.9766ZM308.354 22.2734C307.63 22.2734 306.968 22.1328 306.369 21.8516C305.77 21.5651 305.294 21.1536 304.939 20.6172C304.585 20.0755 304.408 19.4193 304.408 18.6484C304.408 18.0547 304.52 17.5547 304.744 17.1484C304.968 16.7422 305.286 16.4089 305.697 16.1484C306.109 15.888 306.596 15.6823 307.158 15.5312C307.721 15.3802 308.34 15.263 309.018 15.1797C309.689 15.0964 310.257 15.0234 310.721 14.9609C311.189 14.8984 311.546 14.7995 311.791 14.6641C312.036 14.5286 312.158 14.3099 312.158 14.0078V13.7266C312.158 12.9089 311.913 12.2656 311.424 11.7969C310.939 11.3229 310.242 11.0859 309.33 11.0859C308.465 11.0859 307.76 11.276 307.213 11.6562C306.671 12.0365 306.291 12.4844 306.072 13L304.752 12.5234C305.023 11.8672 305.398 11.3437 305.877 10.9531C306.356 10.5573 306.893 10.2734 307.486 10.1016C308.08 9.92448 308.682 9.83594 309.291 9.83594C309.749 9.83594 310.226 9.89583 310.721 10.0156C311.221 10.1354 311.684 10.3437 312.111 10.6406C312.538 10.9323 312.885 11.3411 313.15 11.8672C313.416 12.388 313.549 13.0495 313.549 13.8516V22H312.158V20.1016H312.072C311.906 20.4557 311.658 20.7995 311.33 21.1328C311.002 21.4661 310.59 21.7396 310.096 21.9531C309.601 22.1667 309.02 22.2734 308.354 22.2734ZM308.541 21C309.281 21 309.921 20.8359 310.463 20.5078C311.005 20.1797 311.421 19.7448 311.713 19.2031C312.01 18.6562 312.158 18.0547 312.158 17.3984V15.6641C312.054 15.763 311.88 15.8516 311.635 15.9297C311.395 16.0078 311.117 16.0781 310.799 16.1406C310.486 16.1979 310.174 16.2474 309.861 16.2891C309.549 16.3307 309.268 16.3672 309.018 16.3984C308.34 16.4818 307.762 16.612 307.283 16.7891C306.804 16.9661 306.437 17.2109 306.182 17.5234C305.926 17.8307 305.799 18.2266 305.799 18.7109C305.799 19.4401 306.059 20.0052 306.58 20.4062C307.101 20.8021 307.755 21 308.541 21ZM1.83594 53.5V37H3.1875V39.2891H3.35156C3.51823 38.9297 3.7474 38.5625 4.03906 38.1875C4.33073 37.8073 4.71615 37.487 5.19531 37.2266C5.67969 36.9661 6.28906 36.8359 7.02344 36.8359C8.01302 36.8359 8.8776 37.0964 9.61719 37.6172C10.362 38.1328 10.9401 38.8568 11.3516 39.7891C11.7682 40.7161 11.9766 41.7969 11.9766 43.0313C11.9766 44.2708 11.7682 45.3568 11.3516 46.2891C10.9401 47.2214 10.362 47.9479 9.61719 48.4687C8.8776 48.9896 8.01823 49.25 7.03906 49.25C6.3151 49.25 5.70833 49.1198 5.21875 48.8594C4.73438 48.599 4.34115 48.2786 4.03906 47.8984C3.74219 47.513 3.51302 47.138 3.35156 46.7734H3.22656V53.5H1.83594ZM3.21094 43.0078C3.21094 43.9766 3.35417 44.8359 3.64062 45.5859C3.93229 46.3307 4.34896 46.9167 4.89063 47.3437C5.4375 47.7656 6.09896 47.9766 6.875 47.9766C7.67188 47.9766 8.34375 47.7578 8.89063 47.3203C9.44271 46.8776 9.86198 46.2812 10.1484 45.5313C10.4401 44.7812 10.5859 43.9401 10.5859 43.0078C10.5859 42.0859 10.4427 41.2552 10.1563 40.5156C9.875 39.776 9.45833 39.1901 8.90625 38.7578C8.35417 38.3203 7.67708 38.1016 6.875 38.1016C6.09375 38.1016 5.42969 38.3125 4.88281 38.7344C4.33594 39.151 3.91927 39.7292 3.63281 40.4687C3.35156 41.2031 3.21094 42.0495 3.21094 43.0078ZM15.0273 49V37H16.3789V38.8437H16.4805C16.7201 38.2396 17.1367 37.7526 17.7305 37.3828C18.3294 37.0078 19.0065 36.8203 19.7617 36.8203C19.8763 36.8203 20.0039 36.8229 20.1445 36.8281C20.2852 36.8333 20.4023 36.8385 20.4961 36.8438V38.2578C20.4336 38.2474 20.3242 38.2318 20.168 38.2109C20.0117 38.1901 19.8424 38.1797 19.6602 38.1797C19.0352 38.1797 18.4779 38.3125 17.9883 38.5781C17.5039 38.8385 17.1211 39.2005 16.8398 39.6641C16.5586 40.1276 16.418 40.6562 16.418 41.25V49H15.0273ZM27.168 49.25C26.1315 49.25 25.2148 48.987 24.418 48.4609C23.6263 47.9349 23.0065 47.2083 22.5586 46.2812C22.1107 45.349 21.8867 44.2734 21.8867 43.0547C21.8867 41.8255 22.1107 40.7448 22.5586 39.8125C23.0065 38.875 23.6263 38.1458 24.418 37.625C25.2148 37.099 26.1315 36.8359 27.168 36.8359C28.2044 36.8359 29.1185 37.099 29.9102 37.625C30.7018 38.151 31.3216 38.8802 31.7695 39.8125C32.2227 40.7448 32.4492 41.8255 32.4492 43.0547C32.4492 44.2734 32.2253 45.349 31.7773 46.2812C31.3294 47.2083 30.707 47.9349 29.9102 48.4609C29.1185 48.987 28.2044 49.25 27.168 49.25ZM27.168 47.9766C28.0013 47.9766 28.707 47.7526 29.2852 47.3047C29.8633 46.8568 30.3008 46.2604 30.5977 45.5156C30.8997 44.7708 31.0508 43.9505 31.0508 43.0547C31.0508 42.1589 30.8997 41.3359 30.5977 40.5859C30.3008 39.8359 29.8633 39.2344 29.2852 38.7812C28.707 38.3281 28.0013 38.1016 27.168 38.1016C26.3398 38.1016 25.6341 38.3281 25.0508 38.7812C24.4727 39.2344 24.0326 39.8359 23.7305 40.5859C23.4336 41.3359 23.2852 42.1589 23.2852 43.0547C23.2852 43.9505 23.4336 44.7708 23.7305 45.5156C24.0326 46.2604 24.4727 46.8568 25.0508 47.3047C25.6289 47.7526 26.3346 47.9766 27.168 47.9766ZM40.4395 37V38.2109H34.541V37H40.4395ZM36.3848 49V35.2422C36.3848 34.5964 36.5332 34.0521 36.8301 33.6094C37.1322 33.1667 37.5254 32.8307 38.0098 32.6016C38.4941 32.3724 39.0072 32.2578 39.5488 32.2578C39.9134 32.2578 40.2155 32.2891 40.4551 32.3516C40.6999 32.4089 40.8926 32.4661 41.0332 32.5234L40.627 33.7422C40.5228 33.7109 40.3952 33.6745 40.2441 33.6328C40.0931 33.5911 39.903 33.5703 39.6738 33.5703C39.0697 33.5703 38.6035 33.7396 38.2754 34.0781C37.9473 34.4167 37.7832 34.901 37.7832 35.5312L37.7754 49H36.3848ZM47.5723 49.25C46.4525 49.25 45.4837 48.9896 44.666 48.4687C43.8483 47.9427 43.2155 47.2161 42.7676 46.2891C42.3249 45.3568 42.1035 44.2839 42.1035 43.0703C42.1035 41.862 42.3249 40.7891 42.7676 39.8516C43.2155 38.9089 43.8327 38.1719 44.6191 37.6406C45.4108 37.1042 46.3249 36.8359 47.3613 36.8359C48.0124 36.8359 48.64 36.9557 49.2441 37.1953C49.8483 37.4297 50.39 37.7917 50.8691 38.2812C51.3535 38.7656 51.7363 39.3776 52.0176 40.1172C52.2988 40.8516 52.4395 41.7214 52.4395 42.7266V43.4141H43.0645V42.1875H51.0176C51.0176 41.4167 50.8613 40.724 50.5488 40.1094C50.2415 39.4896 49.8118 39 49.2598 38.6406C48.7129 38.2812 48.0801 38.1016 47.3613 38.1016C46.6009 38.1016 45.9316 38.3047 45.3535 38.7109C44.7754 39.1172 44.3223 39.6536 43.9941 40.3203C43.6712 40.987 43.5072 41.7161 43.502 42.5078V43.2422C43.502 44.1953 43.666 45.0286 43.9941 45.7422C44.3275 46.4505 44.7988 47 45.4082 47.3906C46.0176 47.7812 46.7389 47.9766 47.5723 47.9766C48.14 47.9766 48.6374 47.888 49.0645 47.7109C49.4967 47.5339 49.8587 47.2969 50.1504 47C50.4473 46.6979 50.6712 46.3672 50.8223 46.0078L52.1426 46.4375C51.9603 46.9427 51.6608 47.4089 51.2441 47.8359C50.8327 48.263 50.3171 48.6068 49.6973 48.8672C49.0827 49.1224 48.3743 49.25 47.5723 49.25ZM63.5664 39.6328L62.293 39.9922C62.168 39.6328 61.9909 39.3073 61.7617 39.0156C61.5326 38.724 61.2331 38.4922 60.8633 38.3203C60.4987 38.1484 60.0456 38.0625 59.5039 38.0625C58.6914 38.0625 58.0247 38.2552 57.5039 38.6406C56.9831 39.026 56.7227 39.5234 56.7227 40.1328C56.7227 40.6484 56.8997 41.0677 57.2539 41.3906C57.6133 41.7083 58.1654 41.9609 58.9102 42.1484L60.7227 42.5937C61.7279 42.8385 62.4805 43.2266 62.9805 43.7578C63.4857 44.2891 63.7383 44.9557 63.7383 45.7578C63.7383 46.4349 63.5508 47.0365 63.1758 47.5625C62.8008 48.0885 62.2773 48.5026 61.6055 48.8047C60.9388 49.1016 60.1654 49.25 59.2852 49.25C58.1133 49.25 57.1471 48.987 56.3867 48.4609C55.6263 47.9297 55.1393 47.1641 54.9258 46.1641L56.2617 45.8359C56.4336 46.5495 56.7695 47.0885 57.2695 47.4531C57.7747 47.8177 58.4388 48 59.2617 48C60.1836 48 60.9206 47.7943 61.4727 47.3828C62.0247 46.9661 62.3008 46.4453 62.3008 45.8203C62.3008 45.3359 62.1393 44.9297 61.8164 44.6016C61.4935 44.2682 61.0039 44.0234 60.3477 43.8672L58.3867 43.3984C57.3451 43.1484 56.5742 42.7526 56.0742 42.2109C55.5742 41.6693 55.3242 40.9974 55.3242 40.1953C55.3242 39.5339 55.5039 38.9531 55.8633 38.4531C56.2227 37.9479 56.7174 37.5521 57.3477 37.2656C57.9779 36.9792 58.6966 36.8359 59.5039 36.8359C60.6029 36.8359 61.4805 37.0859 62.1367 37.5859C62.7982 38.0807 63.2747 38.763 63.5664 39.6328ZM66.7988 49V37H68.1973V49H66.7988ZM67.5098 34.9375C67.2233 34.9375 66.9785 34.8411 66.7754 34.6484C66.5723 34.4505 66.4707 34.2135 66.4707 33.9375C66.4707 33.6615 66.5723 33.4271 66.7754 33.2344C66.9785 33.0365 67.2233 32.9375 67.5098 32.9375C67.7962 32.9375 68.041 33.0365 68.2441 33.2344C68.4473 33.4271 68.5488 33.6615 68.5488 33.9375C68.5488 34.2135 68.4473 34.4505 68.2441 34.6484C68.041 34.8411 67.7962 34.9375 67.5098 34.9375ZM76.5391 49.25C75.5026 49.25 74.5859 48.987 73.7891 48.4609C72.9974 47.9349 72.3776 47.2083 71.9297 46.2812C71.4818 45.349 71.2578 44.2734 71.2578 43.0547C71.2578 41.8255 71.4818 40.7448 71.9297 39.8125C72.3776 38.875 72.9974 38.1458 73.7891 37.625C74.5859 37.099 75.5026 36.8359 76.5391 36.8359C77.5755 36.8359 78.4896 37.099 79.2813 37.625C80.0729 38.151 80.6927 38.8802 81.1406 39.8125C81.5938 40.7448 81.8203 41.8255 81.8203 43.0547C81.8203 44.2734 81.5964 45.349 81.1484 46.2812C80.7005 47.2083 80.0781 47.9349 79.2813 48.4609C78.4896 48.987 77.5755 49.25 76.5391 49.25ZM76.5391 47.9766C77.3724 47.9766 78.0781 47.7526 78.6563 47.3047C79.2344 46.8568 79.6719 46.2604 79.9688 45.5156C80.2708 44.7708 80.4219 43.9505 80.4219 43.0547C80.4219 42.1589 80.2708 41.3359 79.9688 40.5859C79.6719 39.8359 79.2344 39.2344 78.6563 38.7812C78.0781 38.3281 77.3724 38.1016 76.5391 38.1016C75.7109 38.1016 75.0052 38.3281 74.4219 38.7812C73.8438 39.2344 73.4036 39.8359 73.1016 40.5859C72.8047 41.3359 72.6563 42.1589 72.6563 43.0547C72.6563 43.9505 72.8047 44.7708 73.1016 45.5156C73.4036 46.2604 73.8438 46.8568 74.4219 47.3047C75 47.7526 75.7057 47.9766 76.5391 47.9766ZM86.2637 41.5V49H84.873V37H86.2246V38.8828H86.3496C86.6309 38.2682 87.0684 37.776 87.6621 37.4063C88.2611 37.0313 89.0007 36.8438 89.8809 36.8438C90.6882 36.8438 91.3965 37.013 92.0059 37.3516C92.6204 37.6849 93.097 38.1771 93.4355 38.8281C93.7793 39.4792 93.9512 40.2786 93.9512 41.2266V49H92.5605V41.3125C92.5605 40.3281 92.2845 39.5495 91.7324 38.9766C91.1855 38.4036 90.4512 38.1172 89.5293 38.1172C88.8991 38.1172 88.3392 38.2526 87.8496 38.5234C87.36 38.7943 86.972 39.1849 86.6855 39.6953C86.4043 40.2005 86.2637 40.8021 86.2637 41.5ZM100.965 49.2734C100.241 49.2734 99.5794 49.1328 98.9805 48.8516C98.3815 48.5651 97.9049 48.1536 97.5508 47.6172C97.1966 47.0755 97.0195 46.4193 97.0195 45.6484C97.0195 45.0547 97.1315 44.5547 97.3555 44.1484C97.5794 43.7422 97.8971 43.4089 98.3086 43.1484C98.7201 42.888 99.207 42.6823 99.7695 42.5312C100.332 42.3802 100.952 42.263 101.629 42.1797C102.301 42.0964 102.868 42.0234 103.332 41.9609C103.801 41.8984 104.158 41.7995 104.402 41.6641C104.647 41.5286 104.77 41.3099 104.77 41.0078V40.7266C104.77 39.9089 104.525 39.2656 104.035 38.7969C103.551 38.3229 102.853 38.0859 101.941 38.0859C101.077 38.0859 100.371 38.276 99.8242 38.6562C99.2826 39.0365 98.9023 39.4844 98.6836 40L97.3633 39.5234C97.6341 38.8672 98.0091 38.3437 98.4883 37.9531C98.9674 37.5573 99.5039 37.2734 100.098 37.1016C100.691 36.9245 101.293 36.8359 101.902 36.8359C102.361 36.8359 102.837 36.8958 103.332 37.0156C103.832 37.1354 104.296 37.3437 104.723 37.6406C105.15 37.9323 105.496 38.3411 105.762 38.8672C106.027 39.388 106.16 40.0495 106.16 40.8516V49H104.77V47.1016H104.684C104.517 47.4557 104.27 47.7995 103.941 48.1328C103.613 48.4661 103.202 48.7396 102.707 48.9531C102.212 49.1667 101.632 49.2734 100.965 49.2734ZM101.152 48C101.892 48 102.533 47.8359 103.074 47.5078C103.616 47.1797 104.033 46.7448 104.324 46.2031C104.621 45.6562 104.77 45.0547 104.77 44.3984V42.6641C104.665 42.763 104.491 42.8516 104.246 42.9297C104.007 43.0078 103.728 43.0781 103.41 43.1406C103.098 43.1979 102.785 43.2474 102.473 43.2891C102.16 43.3307 101.879 43.3672 101.629 43.3984C100.952 43.4818 100.374 43.612 99.8945 43.7891C99.4154 43.9661 99.0482 44.2109 98.793 44.5234C98.5378 44.8307 98.4102 45.2266 98.4102 45.7109C98.4102 46.4401 98.6706 47.0052 99.1914 47.4062C99.7122 47.8021 100.366 48 101.152 48ZM111.25 33V49H109.859V33H111.25ZM116.039 49.1172C115.732 49.1172 115.466 49.0078 115.242 48.7891C115.023 48.5651 114.914 48.2995 114.914 47.9922C114.914 47.6797 115.023 47.4141 115.242 47.1953C115.466 46.9766 115.732 46.8672 116.039 46.8672C116.352 46.8672 116.617 46.9766 116.836 47.1953C117.055 47.4141 117.164 47.6797 117.164 47.9922C117.164 48.1953 117.112 48.3828 117.008 48.5547C116.909 48.7266 116.773 48.8646 116.602 48.9687C116.435 49.0677 116.247 49.1172 116.039 49.1172ZM127.314 49V33H132.713C133.755 33 134.622 33.1823 135.314 33.5469C136.012 33.9115 136.536 34.4089 136.885 35.0391C137.234 35.6693 137.408 36.3854 137.408 37.1875C137.408 37.8542 137.296 38.4245 137.072 38.8984C136.848 39.3724 136.544 39.7552 136.158 40.0469C135.773 40.3385 135.343 40.5495 134.869 40.6797V40.8047C135.385 40.8411 135.885 41.0234 136.369 41.3516C136.854 41.6745 137.252 42.1276 137.564 42.7109C137.877 43.2943 138.033 43.9922 138.033 44.8047C138.033 45.612 137.854 46.3333 137.494 46.9687C137.135 47.599 136.583 48.0964 135.838 48.4609C135.098 48.8203 134.156 49 133.01 49H127.314ZM128.775 47.6875H133.01C134.244 47.6875 135.156 47.4141 135.744 46.8672C136.338 46.3203 136.635 45.6328 136.635 44.8047C136.635 44.1953 136.486 43.6432 136.189 43.1484C135.898 42.6484 135.484 42.2526 134.947 41.9609C134.416 41.6693 133.791 41.5234 133.072 41.5234H128.775V47.6875ZM128.775 40.2266H132.846C133.476 40.2266 134.028 40.0964 134.502 39.8359C134.976 39.5755 135.346 39.2161 135.611 38.7578C135.877 38.2995 136.01 37.776 136.01 37.1875C136.01 36.3385 135.734 35.6484 135.182 35.1172C134.63 34.5807 133.807 34.3125 132.713 34.3125H128.775V40.2266ZM141.285 49V37H142.684V49H141.285ZM141.996 34.9375C141.71 34.9375 141.465 34.8411 141.262 34.6484C141.059 34.4505 140.957 34.2135 140.957 33.9375C140.957 33.6615 141.059 33.4271 141.262 33.2344C141.465 33.0365 141.71 32.9375 141.996 32.9375C142.283 32.9375 142.527 33.0365 142.73 33.2344C142.934 33.4271 143.035 33.6615 143.035 33.9375C143.035 34.2135 142.934 34.4505 142.73 34.6484C142.527 34.8411 142.283 34.9375 141.996 34.9375ZM151.213 49.25C150.093 49.25 149.124 48.9896 148.307 48.4687C147.489 47.9427 146.856 47.2161 146.408 46.2891C145.965 45.3568 145.744 44.2839 145.744 43.0703C145.744 41.862 145.965 40.7891 146.408 39.8516C146.856 38.9089 147.473 38.1719 148.26 37.6406C149.051 37.1042 149.965 36.8359 151.002 36.8359C151.653 36.8359 152.281 36.9557 152.885 37.1953C153.489 37.4297 154.031 37.7917 154.51 38.2812C154.994 38.7656 155.377 39.3776 155.658 40.1172C155.939 40.8516 156.08 41.7214 156.08 42.7266V43.4141H146.705V42.1875H154.658C154.658 41.4167 154.502 40.724 154.189 40.1094C153.882 39.4896 153.452 39 152.9 38.6406C152.354 38.2812 151.721 38.1016 151.002 38.1016C150.242 38.1016 149.572 38.3047 148.994 38.7109C148.416 39.1172 147.963 39.6536 147.635 40.3203C147.312 40.987 147.148 41.7161 147.143 42.5078V43.2422C147.143 44.1953 147.307 45.0286 147.635 45.7422C147.968 46.4505 148.439 47 149.049 47.3906C149.658 47.7812 150.38 47.9766 151.213 47.9766C151.781 47.9766 152.278 47.888 152.705 47.7109C153.137 47.5339 153.499 47.2969 153.791 47C154.088 46.6979 154.312 46.3672 154.463 46.0078L155.783 46.4375C155.601 46.9427 155.301 47.4089 154.885 47.8359C154.473 48.263 153.958 48.6068 153.338 48.8672C152.723 49.1224 152.015 49.25 151.213 49.25ZM160.535 41.5V49H159.145V37H160.496V38.8828H160.621C160.902 38.2682 161.34 37.776 161.934 37.4063C162.533 37.0313 163.272 36.8438 164.152 36.8438C164.96 36.8438 165.668 37.013 166.277 37.3516C166.892 37.6849 167.368 38.1771 167.707 38.8281C168.051 39.4792 168.223 40.2786 168.223 41.2266V49H166.832V41.3125C166.832 40.3281 166.556 39.5495 166.004 38.9766C165.457 38.4036 164.723 38.1172 163.801 38.1172C163.171 38.1172 162.611 38.2526 162.121 38.5234C161.632 38.7943 161.243 39.1849 160.957 39.6953C160.676 40.2005 160.535 40.8021 160.535 41.5ZM180.744 37L176.361 49H174.877L170.494 37H172.002L175.564 47.1641H175.674L179.236 37H180.744ZM187.887 49.25C186.767 49.25 185.798 48.9896 184.98 48.4687C184.163 47.9427 183.53 47.2161 183.082 46.2891C182.639 45.3568 182.418 44.2839 182.418 43.0703C182.418 41.862 182.639 40.7891 183.082 39.8516C183.53 38.9089 184.147 38.1719 184.934 37.6406C185.725 37.1042 186.639 36.8359 187.676 36.8359C188.327 36.8359 188.954 36.9557 189.559 37.1953C190.163 37.4297 190.704 37.7917 191.184 38.2812C191.668 38.7656 192.051 39.3776 192.332 40.1172C192.613 40.8516 192.754 41.7214 192.754 42.7266V43.4141H183.379V42.1875H191.332C191.332 41.4167 191.176 40.724 190.863 40.1094C190.556 39.4896 190.126 39 189.574 38.6406C189.027 38.2812 188.395 38.1016 187.676 38.1016C186.915 38.1016 186.246 38.3047 185.668 38.7109C185.09 39.1172 184.637 39.6536 184.309 40.3203C183.986 40.987 183.822 41.7161 183.816 42.5078V43.2422C183.816 44.1953 183.98 45.0286 184.309 45.7422C184.642 46.4505 185.113 47 185.723 47.3906C186.332 47.7812 187.053 47.9766 187.887 47.9766C188.454 47.9766 188.952 47.888 189.379 47.7109C189.811 47.5339 190.173 47.2969 190.465 47C190.762 46.6979 190.986 46.3672 191.137 46.0078L192.457 46.4375C192.275 46.9427 191.975 47.4089 191.559 47.8359C191.147 48.263 190.632 48.6068 190.012 48.8672C189.397 49.1224 188.689 49.25 187.887 49.25ZM197.209 41.5V49H195.818V37H197.17V38.8828H197.295C197.576 38.2682 198.014 37.776 198.607 37.4063C199.206 37.0313 199.946 36.8438 200.826 36.8438C201.633 36.8438 202.342 37.013 202.951 37.3516C203.566 37.6849 204.042 38.1771 204.381 38.8281C204.725 39.4792 204.896 40.2786 204.896 41.2266V49H203.506V41.3125C203.506 40.3281 203.23 39.5495 202.678 38.9766C202.131 38.4036 201.396 38.1172 200.475 38.1172C199.844 38.1172 199.285 38.2526 198.795 38.5234C198.305 38.7943 197.917 39.1849 197.631 39.6953C197.35 40.2005 197.209 40.8021 197.209 41.5ZM208.574 49V37H209.973V49H208.574ZM209.285 34.9375C208.999 34.9375 208.754 34.8411 208.551 34.6484C208.348 34.4505 208.246 34.2135 208.246 33.9375C208.246 33.6615 208.348 33.4271 208.551 33.2344C208.754 33.0365 208.999 32.9375 209.285 32.9375C209.572 32.9375 209.816 33.0365 210.02 33.2344C210.223 33.4271 210.324 33.6615 210.324 33.9375C210.324 34.2135 210.223 34.4505 210.02 34.6484C209.816 34.8411 209.572 34.9375 209.285 34.9375ZM217.971 49.25C216.986 49.25 216.124 48.9896 215.385 48.4687C214.645 47.9479 214.067 47.2214 213.65 46.2891C213.239 45.3568 213.033 44.2708 213.033 43.0313C213.033 41.7969 213.239 40.7161 213.65 39.7891C214.067 38.8568 214.648 38.1328 215.393 37.6172C216.137 37.0964 217.005 36.8359 217.994 36.8359C218.723 36.8359 219.33 36.9661 219.814 37.2266C220.299 37.4818 220.687 37.7995 220.979 38.1797C221.27 38.5599 221.497 38.9297 221.658 39.2891H221.783V33H223.182V49H221.822V46.7734H221.658C221.497 47.138 221.268 47.513 220.971 47.8984C220.674 48.2786 220.281 48.599 219.791 48.8594C219.307 49.1198 218.7 49.25 217.971 49.25ZM218.135 47.9766C218.911 47.9766 219.572 47.7656 220.119 47.3437C220.666 46.9167 221.083 46.3307 221.369 45.5859C221.661 44.8359 221.807 43.9766 221.807 43.0078C221.807 42.0495 221.663 41.2031 221.377 40.4687C221.09 39.7292 220.674 39.151 220.127 38.7344C219.58 38.3125 218.916 38.1016 218.135 38.1016C217.333 38.1016 216.656 38.3203 216.104 38.7578C215.557 39.1901 215.14 39.776 214.854 40.5156C214.572 41.2552 214.432 42.0859 214.432 43.0078C214.432 43.9401 214.575 44.7812 214.861 45.5313C215.148 46.2812 215.564 46.8776 216.111 47.3203C216.663 47.7578 217.338 47.9766 218.135 47.9766ZM231.807 49.25C230.77 49.25 229.854 48.987 229.057 48.4609C228.265 47.9349 227.645 47.2083 227.197 46.2812C226.749 45.349 226.525 44.2734 226.525 43.0547C226.525 41.8255 226.749 40.7448 227.197 39.8125C227.645 38.875 228.265 38.1458 229.057 37.625C229.854 37.099 230.77 36.8359 231.807 36.8359C232.843 36.8359 233.757 37.099 234.549 37.625C235.34 38.151 235.96 38.8802 236.408 39.8125C236.861 40.7448 237.088 41.8255 237.088 43.0547C237.088 44.2734 236.864 45.349 236.416 46.2812C235.968 47.2083 235.346 47.9349 234.549 48.4609C233.757 48.987 232.843 49.25 231.807 49.25ZM231.807 47.9766C232.64 47.9766 233.346 47.7526 233.924 47.3047C234.502 46.8568 234.939 46.2604 235.236 45.5156C235.538 44.7708 235.689 43.9505 235.689 43.0547C235.689 42.1589 235.538 41.3359 235.236 40.5859C234.939 39.8359 234.502 39.2344 233.924 38.7812C233.346 38.3281 232.64 38.1016 231.807 38.1016C230.979 38.1016 230.273 38.3281 229.689 38.7812C229.111 39.2344 228.671 39.8359 228.369 40.5859C228.072 41.3359 227.924 42.1589 227.924 43.0547C227.924 43.9505 228.072 44.7708 228.369 45.5156C228.671 46.2604 229.111 46.8568 229.689 47.3047C230.268 47.7526 230.973 47.9766 231.807 47.9766ZM249.68 49.2734C248.956 49.2734 248.294 49.1328 247.695 48.8516C247.096 48.5651 246.62 48.1536 246.266 47.6172C245.911 47.0755 245.734 46.4193 245.734 45.6484C245.734 45.0547 245.846 44.5547 246.07 44.1484C246.294 43.7422 246.612 43.4089 247.023 43.1484C247.435 42.888 247.922 42.6823 248.484 42.5312C249.047 42.3802 249.667 42.263 250.344 42.1797C251.016 42.0964 251.583 42.0234 252.047 41.9609C252.516 41.8984 252.872 41.7995 253.117 41.6641C253.362 41.5286 253.484 41.3099 253.484 41.0078V40.7266C253.484 39.9089 253.24 39.2656 252.75 38.7969C252.266 38.3229 251.568 38.0859 250.656 38.0859C249.792 38.0859 249.086 38.276 248.539 38.6562C247.997 39.0365 247.617 39.4844 247.398 40L246.078 39.5234C246.349 38.8672 246.724 38.3437 247.203 37.9531C247.682 37.5573 248.219 37.2734 248.813 37.1016C249.406 36.9245 250.008 36.8359 250.617 36.8359C251.076 36.8359 251.552 36.8958 252.047 37.0156C252.547 37.1354 253.01 37.3437 253.438 37.6406C253.865 37.9323 254.211 38.3411 254.477 38.8672C254.742 39.388 254.875 40.0495 254.875 40.8516V49H253.484V47.1016H253.398C253.232 47.4557 252.984 47.7995 252.656 48.1328C252.328 48.4661 251.917 48.7396 251.422 48.9531C250.927 49.1667 250.346 49.2734 249.68 49.2734ZM249.867 48C250.607 48 251.247 47.8359 251.789 47.5078C252.331 47.1797 252.747 46.7448 253.039 46.2031C253.336 45.6562 253.484 45.0547 253.484 44.3984V42.6641C253.38 42.763 253.206 42.8516 252.961 42.9297C252.721 43.0078 252.443 43.0781 252.125 43.1406C251.813 43.1979 251.5 43.2474 251.188 43.2891C250.875 43.3307 250.594 43.3672 250.344 43.3984C249.667 43.4818 249.089 43.612 248.609 43.7891C248.13 43.9661 247.763 44.2109 247.508 44.5234C247.253 44.8307 247.125 45.2266 247.125 45.7109C247.125 46.4401 247.385 47.0052 247.906 47.4062C248.427 47.8021 249.081 48 249.867 48ZM266.152 33V49H264.762V33H266.152ZM273.184 49.2734C272.46 49.2734 271.798 49.1328 271.199 48.8516C270.6 48.5651 270.124 48.1536 269.77 47.6172C269.415 47.0755 269.238 46.4193 269.238 45.6484C269.238 45.0547 269.35 44.5547 269.574 44.1484C269.798 43.7422 270.116 43.4089 270.527 43.1484C270.939 42.888 271.426 42.6823 271.988 42.5312C272.551 42.3802 273.171 42.263 273.848 42.1797C274.52 42.0964 275.087 42.0234 275.551 41.9609C276.02 41.8984 276.376 41.7995 276.621 41.6641C276.866 41.5286 276.988 41.3099 276.988 41.0078V40.7266C276.988 39.9089 276.743 39.2656 276.254 38.7969C275.77 38.3229 275.072 38.0859 274.16 38.0859C273.296 38.0859 272.59 38.276 272.043 38.6562C271.501 39.0365 271.121 39.4844 270.902 40L269.582 39.5234C269.853 38.8672 270.228 38.3437 270.707 37.9531C271.186 37.5573 271.723 37.2734 272.316 37.1016C272.91 36.9245 273.512 36.8359 274.121 36.8359C274.579 36.8359 275.056 36.8958 275.551 37.0156C276.051 37.1354 276.514 37.3437 276.941 37.6406C277.368 37.9323 277.715 38.3411 277.98 38.8672C278.246 39.388 278.379 40.0495 278.379 40.8516V49H276.988V47.1016H276.902C276.736 47.4557 276.488 47.7995 276.16 48.1328C275.832 48.4661 275.421 48.7396 274.926 48.9531C274.431 49.1667 273.85 49.2734 273.184 49.2734ZM273.371 48C274.111 48 274.751 47.8359 275.293 47.5078C275.835 47.1797 276.251 46.7448 276.543 46.2031C276.84 45.6562 276.988 45.0547 276.988 44.3984V42.6641C276.884 42.763 276.71 42.8516 276.465 42.9297C276.225 43.0078 275.947 43.0781 275.629 43.1406C275.316 43.1979 275.004 43.2474 274.691 43.2891C274.379 43.3307 274.098 43.3672 273.848 43.3984C273.171 43.4818 272.592 43.612 272.113 43.7891C271.634 43.9661 271.267 44.2109 271.012 44.5234C270.757 44.8307 270.629 45.2266 270.629 45.7109C270.629 46.4401 270.889 47.0052 271.41 47.4062C271.931 47.8021 272.585 48 273.371 48ZM12.2983 60.5455H15.9886V71.8807C15.9886 73.1534 15.6847 74.267 15.0767 75.2216C14.4744 76.1761 13.6307 76.9205 12.5455 77.4545C11.4602 77.983 10.196 78.2472 8.75284 78.2472C7.30398 78.2472 6.03693 77.983 4.9517 77.4545C3.86648 76.9205 3.02273 76.1761 2.42045 75.2216C1.81818 74.267 1.51705 73.1534 1.51705 71.8807V60.5455H5.20739V71.5653C5.20739 72.2301 5.35227 72.821 5.64205 73.3381C5.9375 73.8551 6.35227 74.2614 6.88636 74.5568C7.42045 74.8523 8.04261 75 8.75284 75C9.46875 75 10.0909 74.8523 10.6193 74.5568C11.1534 74.2614 11.5653 73.8551 11.8551 73.3381C12.1506 72.821 12.2983 72.2301 12.2983 71.5653V60.5455ZM22.5874 70.4318V78H18.9567V64.9091H22.4169V67.2188H22.5703C22.8601 66.4574 23.3459 65.8551 24.0277 65.4119C24.7095 64.9631 25.5362 64.7386 26.5078 64.7386C27.4169 64.7386 28.2095 64.9375 28.8857 65.3352C29.5618 65.733 30.0874 66.3011 30.4624 67.0398C30.8374 67.7727 31.0249 68.6477 31.0249 69.6648V78H27.3942V70.3125C27.3999 69.5114 27.1953 68.8864 26.7805 68.4375C26.3658 67.983 25.7947 67.7557 25.0675 67.7557C24.5788 67.7557 24.147 67.8608 23.772 68.071C23.4027 68.2812 23.1129 68.5881 22.9027 68.9915C22.6982 69.3892 22.593 69.8693 22.5874 70.4318ZM33.8864 78V64.9091H37.517V78H33.8864ZM35.7102 63.2216C35.1705 63.2216 34.7074 63.0426 34.321 62.6847C33.9403 62.321 33.75 61.8864 33.75 61.3807C33.75 60.8807 33.9403 60.4517 34.321 60.0938C34.7074 59.7301 35.1705 59.5483 35.7102 59.5483C36.25 59.5483 36.7102 59.7301 37.0909 60.0938C37.4773 60.4517 37.6705 60.8807 37.6705 61.3807C37.6705 61.8864 37.4773 62.321 37.0909 62.6847C36.7102 63.0426 36.25 63.2216 35.7102 63.2216ZM52.63 64.9091L48.0533 78H43.9624L39.3857 64.9091H43.2209L45.9396 74.2756H46.076L48.7862 64.9091H52.63ZM60.032 78.2557C58.6854 78.2557 57.5263 77.983 56.5547 77.4375C55.5888 76.8864 54.8445 76.108 54.3217 75.1023C53.799 74.0909 53.5376 72.8949 53.5376 71.5142C53.5376 70.1676 53.799 68.9858 54.3217 67.9688C54.8445 66.9517 55.5803 66.1591 56.5291 65.5909C57.4837 65.0227 58.603 64.7386 59.8871 64.7386C60.7507 64.7386 61.5547 64.8778 62.299 65.1562C63.049 65.429 63.7024 65.8409 64.2592 66.392C64.8217 66.9432 65.2592 67.6364 65.5717 68.4716C65.8842 69.3011 66.0405 70.2727 66.0405 71.3864V72.3835H54.9865V70.1335H62.6229C62.6229 69.6108 62.5092 69.1477 62.282 68.7443C62.0547 68.3409 61.7393 68.0256 61.3359 67.7983C60.9382 67.5653 60.4751 67.4489 59.9467 67.4489C59.3956 67.4489 58.907 67.5767 58.4808 67.8324C58.0604 68.0824 57.7308 68.4205 57.4922 68.8466C57.2536 69.267 57.1314 69.7358 57.1257 70.2528V72.392C57.1257 73.0398 57.245 73.5994 57.4837 74.071C57.728 74.5426 58.0717 74.9062 58.5149 75.1619C58.9581 75.4176 59.4837 75.5455 60.0916 75.5455C60.495 75.5455 60.8643 75.4886 61.1996 75.375C61.5348 75.2614 61.8217 75.0909 62.0604 74.8636C62.299 74.6364 62.4808 74.358 62.6058 74.0284L65.9638 74.25C65.7933 75.0568 65.4439 75.7614 64.9155 76.3636C64.3928 76.9602 63.7166 77.4261 62.8871 77.7614C62.0632 78.0909 61.1115 78.2557 60.032 78.2557ZM68.4098 78V64.9091H71.9297V67.1932H72.0661C72.3047 66.3807 72.7053 65.767 73.2678 65.3523C73.8303 64.9318 74.478 64.7216 75.2109 64.7216C75.3928 64.7216 75.5888 64.733 75.799 64.7557C76.0092 64.7784 76.1939 64.8097 76.353 64.8494V68.071C76.1825 68.0199 75.9467 67.9744 75.6456 67.9347C75.3445 67.8949 75.0689 67.875 74.8189 67.875C74.2848 67.875 73.8075 67.9915 73.3871 68.2244C72.9723 68.4517 72.6428 68.7699 72.3984 69.179C72.1598 69.5881 72.0405 70.0597 72.0405 70.5938V78H68.4098ZM89.1222 68.642L85.7983 68.8466C85.7415 68.5625 85.6193 68.3068 85.4318 68.0795C85.2443 67.8466 84.9972 67.6619 84.6903 67.5256C84.3892 67.3835 84.0284 67.3125 83.608 67.3125C83.0455 67.3125 82.571 67.4318 82.1847 67.6705C81.7983 67.9034 81.6051 68.2159 81.6051 68.608C81.6051 68.9205 81.7301 69.1847 81.9801 69.4006C82.2301 69.6165 82.6591 69.7898 83.267 69.9205L85.6364 70.3977C86.9091 70.6591 87.858 71.0795 88.483 71.6591C89.108 72.2386 89.4205 73 89.4205 73.9432C89.4205 74.8011 89.1676 75.554 88.6619 76.2017C88.1619 76.8494 87.4744 77.3551 86.5994 77.7188C85.7301 78.0767 84.7273 78.2557 83.5909 78.2557C81.858 78.2557 80.4773 77.8949 79.4489 77.1733C78.4261 76.446 77.8267 75.4574 77.6506 74.2074L81.2216 74.0199C81.3295 74.5483 81.5909 74.9517 82.0057 75.2301C82.4205 75.5028 82.9517 75.6392 83.5994 75.6392C84.2358 75.6392 84.7472 75.517 85.1335 75.2727C85.5256 75.0227 85.7244 74.7017 85.7301 74.3097C85.7244 73.9801 85.5852 73.7102 85.3125 73.5C85.0398 73.2841 84.6193 73.1193 84.0511 73.0057L81.7841 72.554C80.5057 72.2983 79.554 71.8551 78.929 71.2244C78.3097 70.5937 78 69.7898 78 68.8125C78 67.9716 78.2273 67.2472 78.6818 66.6392C79.142 66.0312 79.7869 65.5625 80.6165 65.233C81.4517 64.9034 82.429 64.7386 83.5483 64.7386C85.2017 64.7386 86.5028 65.0881 87.4517 65.7869C88.4063 66.4858 88.9631 67.4375 89.1222 68.642ZM91.7067 78V64.9091H95.3374V78H91.7067ZM93.5305 63.2216C92.9908 63.2216 92.5277 63.0426 92.1413 62.6847C91.7607 62.321 91.5703 61.8864 91.5703 61.3807C91.5703 60.8807 91.7607 60.4517 92.1413 60.0938C92.5277 59.7301 92.9908 59.5483 93.5305 59.5483C94.0703 59.5483 94.5305 59.7301 94.9112 60.0938C95.2976 60.4517 95.4908 60.8807 95.4908 61.3807C95.4908 61.8864 95.2976 62.321 94.9112 62.6847C94.5305 63.0426 94.0703 63.2216 93.5305 63.2216ZM103.07 78.2131C102.075 78.2131 101.175 77.9574 100.368 77.446C99.5668 76.929 98.9304 76.1705 98.4588 75.1705C97.9929 74.1648 97.7599 72.9318 97.7599 71.4716C97.7599 69.9716 98.0014 68.7244 98.4844 67.7301C98.9673 66.7301 99.6094 65.983 100.411 65.4886C101.217 64.9886 102.101 64.7386 103.061 64.7386C103.794 64.7386 104.405 64.8636 104.893 65.1136C105.388 65.358 105.786 65.6648 106.087 66.0341C106.393 66.3977 106.626 66.7557 106.786 67.108H106.896V60.5455H110.518V78H106.939V75.9034H106.786C106.615 76.267 106.374 76.6278 106.061 76.9858C105.754 77.3381 105.354 77.6307 104.859 77.8636C104.371 78.0966 103.774 78.2131 103.07 78.2131ZM104.22 75.3239C104.805 75.3239 105.3 75.1648 105.703 74.8466C106.112 74.5227 106.425 74.071 106.641 73.4915C106.862 72.9119 106.973 72.233 106.973 71.4545C106.973 70.6761 106.865 70 106.649 69.4261C106.433 68.8523 106.121 68.4091 105.712 68.0966C105.303 67.7841 104.805 67.6278 104.22 67.6278C103.624 67.6278 103.121 67.7898 102.712 68.1136C102.303 68.4375 101.993 68.8864 101.783 69.4602C101.572 70.0341 101.467 70.6989 101.467 71.4545C101.467 72.2159 101.572 72.8892 101.783 73.4744C101.999 74.054 102.308 74.5085 102.712 74.8381C103.121 75.1619 103.624 75.3239 104.22 75.3239ZM117.237 78.2472C116.401 78.2472 115.657 78.1023 115.004 77.8125C114.35 77.517 113.833 77.0824 113.452 76.5085C113.077 75.929 112.89 75.2074 112.89 74.3438C112.89 73.6165 113.023 73.0057 113.29 72.5114C113.558 72.017 113.921 71.6193 114.381 71.3182C114.842 71.017 115.364 70.7898 115.95 70.6364C116.54 70.483 117.16 70.375 117.808 70.3125C118.569 70.233 119.183 70.1591 119.648 70.0909C120.114 70.017 120.452 69.9091 120.663 69.767C120.873 69.625 120.978 69.4148 120.978 69.1364V69.0852C120.978 68.5455 120.808 68.1278 120.467 67.8324C120.131 67.5369 119.654 67.3892 119.035 67.3892C118.381 67.3892 117.862 67.5341 117.475 67.8239C117.089 68.108 116.833 68.4659 116.708 68.8977L113.35 68.625C113.521 67.8295 113.856 67.142 114.356 66.5625C114.856 65.9773 115.501 65.5284 116.29 65.2159C117.086 64.8977 118.006 64.7386 119.052 64.7386C119.779 64.7386 120.475 64.8239 121.14 64.9943C121.81 65.1648 122.404 65.429 122.921 65.7869C123.444 66.1449 123.856 66.6051 124.157 67.1676C124.458 67.7244 124.609 68.392 124.609 69.1705V78H121.165V76.1847H121.063C120.853 76.5938 120.572 76.9545 120.219 77.267C119.867 77.5739 119.444 77.8153 118.95 77.9915C118.455 78.1619 117.884 78.2472 117.237 78.2472ZM118.276 75.7415C118.81 75.7415 119.282 75.6364 119.691 75.4261C120.1 75.2102 120.421 74.9205 120.654 74.5568C120.887 74.1932 121.004 73.7812 121.004 73.321V71.9318C120.89 72.0057 120.734 72.0739 120.535 72.1364C120.342 72.1932 120.123 72.2472 119.879 72.2983C119.634 72.3437 119.39 72.3864 119.146 72.4261C118.901 72.4602 118.68 72.4915 118.481 72.5199C118.055 72.5824 117.683 72.6818 117.364 72.8182C117.046 72.9545 116.799 73.1392 116.623 73.3722C116.447 73.5994 116.359 73.8835 116.359 74.2244C116.359 74.7188 116.538 75.0966 116.896 75.358C117.259 75.6136 117.719 75.7415 118.276 75.7415ZM132.249 78.2131C131.255 78.2131 130.354 77.9574 129.548 77.446C128.746 76.929 128.11 76.1705 127.638 75.1705C127.173 74.1648 126.94 72.9318 126.94 71.4716C126.94 69.9716 127.181 68.7244 127.664 67.7301C128.147 66.7301 128.789 65.983 129.59 65.4886C130.397 64.9886 131.281 64.7386 132.241 64.7386C132.974 64.7386 133.585 64.8636 134.073 65.1136C134.567 65.358 134.965 65.6648 135.266 66.0341C135.573 66.3977 135.806 66.7557 135.965 67.108H136.076V60.5455H139.698V78H136.119V75.9034H135.965C135.795 76.267 135.553 76.6278 135.241 76.9858C134.934 77.3381 134.533 77.6307 134.039 77.8636C133.55 78.0966 132.954 78.2131 132.249 78.2131ZM133.4 75.3239C133.985 75.3239 134.479 75.1648 134.883 74.8466C135.292 74.5227 135.604 74.071 135.82 73.4915C136.042 72.9119 136.153 72.233 136.153 71.4545C136.153 70.6761 136.045 70 135.829 69.4261C135.613 68.8523 135.3 68.4091 134.891 68.0966C134.482 67.7841 133.985 67.6278 133.4 67.6278C132.803 67.6278 132.3 67.7898 131.891 68.1136C131.482 68.4375 131.173 68.8864 130.962 69.4602C130.752 70.0341 130.647 70.6989 130.647 71.4545C130.647 72.2159 130.752 72.8892 130.962 73.4744C131.178 74.054 131.488 74.5085 131.891 74.8381C132.3 75.1619 132.803 75.3239 133.4 75.3239ZM163.707 66.6562H159.974C159.906 66.1733 159.766 65.7443 159.556 65.3693C159.346 64.9886 159.076 64.6648 158.746 64.3977C158.417 64.1307 158.036 63.9261 157.604 63.7841C157.178 63.642 156.715 63.571 156.215 63.571C155.312 63.571 154.525 63.7955 153.854 64.2443C153.184 64.6875 152.664 65.3352 152.295 66.1875C151.925 67.0341 151.741 68.0625 151.741 69.2727C151.741 70.517 151.925 71.5625 152.295 72.4091C152.67 73.2557 153.192 73.8949 153.863 74.3267C154.533 74.7585 155.309 74.9744 156.19 74.9744C156.684 74.9744 157.141 74.9091 157.562 74.7784C157.988 74.6477 158.366 74.4574 158.695 74.2074C159.025 73.9517 159.298 73.642 159.513 73.2784C159.735 72.9148 159.888 72.5 159.974 72.0341L163.707 72.0511C163.61 72.8523 163.369 73.625 162.982 74.3693C162.602 75.108 162.087 75.7699 161.44 76.3551C160.798 76.9347 160.031 77.3949 159.138 77.7358C158.252 78.071 157.249 78.2386 156.13 78.2386C154.573 78.2386 153.181 77.8864 151.954 77.1818C150.732 76.4773 149.766 75.4574 149.056 74.1222C148.352 72.7869 147.999 71.1705 147.999 69.2727C147.999 67.3693 148.357 65.75 149.073 64.4148C149.789 63.0795 150.761 62.0625 151.988 61.3636C153.215 60.6591 154.596 60.3068 156.13 60.3068C157.141 60.3068 158.079 60.4489 158.942 60.733C159.812 61.017 160.582 61.4318 161.252 61.9773C161.923 62.517 162.468 63.179 162.888 63.9631C163.315 64.7472 163.587 65.6449 163.707 66.6562ZM172.251 78.2557C170.904 78.2557 169.745 77.983 168.773 77.4375C167.808 76.8864 167.063 76.108 166.54 75.1023C166.018 74.0909 165.756 72.8949 165.756 71.5142C165.756 70.1676 166.018 68.9858 166.54 67.9688C167.063 66.9517 167.799 66.1591 168.748 65.5909C169.702 65.0227 170.822 64.7386 172.106 64.7386C172.969 64.7386 173.773 64.8778 174.518 65.1562C175.268 65.429 175.921 65.8409 176.478 66.392C177.04 66.9432 177.478 67.6364 177.79 68.4716C178.103 69.3011 178.259 70.2727 178.259 71.3864V72.3835H167.205V70.1335H174.842C174.842 69.6108 174.728 69.1477 174.501 68.7443C174.273 68.3409 173.958 68.0256 173.555 67.7983C173.157 67.5653 172.694 67.4489 172.165 67.4489C171.614 67.4489 171.126 67.5767 170.7 67.8324C170.279 68.0824 169.95 68.4205 169.711 68.8466C169.472 69.267 169.35 69.7358 169.344 70.2528V72.392C169.344 73.0398 169.464 73.5994 169.702 74.071C169.947 74.5426 170.29 74.9062 170.734 75.1619C171.177 75.4176 171.702 75.5455 172.31 75.5455C172.714 75.5455 173.083 75.4886 173.418 75.375C173.754 75.2614 174.04 75.0909 174.279 74.8636C174.518 74.6364 174.7 74.358 174.825 74.0284L178.183 74.25C178.012 75.0568 177.663 75.7614 177.134 76.3636C176.612 76.9602 175.935 77.4261 175.106 77.7614C174.282 78.0909 173.33 78.2557 172.251 78.2557ZM170.717 63.2216L172.523 59.3438H175.881L173.282 63.2216H170.717ZM191.521 68.642L188.197 68.8466C188.14 68.5625 188.018 68.3068 187.83 68.0795C187.643 67.8466 187.396 67.6619 187.089 67.5256C186.788 67.3835 186.427 67.3125 186.006 67.3125C185.444 67.3125 184.969 67.4318 184.583 67.6705C184.197 67.9034 184.004 68.2159 184.004 68.608C184.004 68.9205 184.129 69.1847 184.379 69.4006C184.629 69.6165 185.058 69.7898 185.665 69.9205L188.035 70.3977C189.308 70.6591 190.256 71.0795 190.881 71.6591C191.506 72.2386 191.819 73 191.819 73.9432C191.819 74.8011 191.566 75.554 191.06 76.2017C190.56 76.8494 189.873 77.3551 188.998 77.7188C188.129 78.0767 187.126 78.2557 185.989 78.2557C184.256 78.2557 182.876 77.8949 181.847 77.1733C180.825 76.446 180.225 75.4574 180.049 74.2074L183.62 74.0199C183.728 74.5483 183.989 74.9517 184.404 75.2301C184.819 75.5028 185.35 75.6392 185.998 75.6392C186.634 75.6392 187.146 75.517 187.532 75.2727C187.924 75.0227 188.123 74.7017 188.129 74.3097C188.123 73.9801 187.984 73.7102 187.711 73.5C187.438 73.2841 187.018 73.1193 186.45 73.0057L184.183 72.554C182.904 72.2983 181.952 71.8551 181.327 71.2244C180.708 70.5937 180.398 69.7898 180.398 68.8125C180.398 67.9716 180.626 67.2472 181.08 66.6392C181.54 66.0312 182.185 65.5625 183.015 65.233C183.85 64.9034 184.827 64.7386 185.947 64.7386C187.6 64.7386 188.901 65.0881 189.85 65.7869C190.805 66.4858 191.362 67.4375 191.521 68.642ZM197.838 78.2472C197.003 78.2472 196.259 78.1023 195.605 77.8125C194.952 77.517 194.435 77.0824 194.054 76.5085C193.679 75.929 193.491 75.2074 193.491 74.3438C193.491 73.6165 193.625 73.0057 193.892 72.5114C194.159 72.017 194.523 71.6193 194.983 71.3182C195.443 71.017 195.966 70.7898 196.551 70.6364C197.142 70.483 197.761 70.375 198.409 70.3125C199.17 70.233 199.784 70.1591 200.25 70.0909C200.716 70.017 201.054 69.9091 201.264 69.767C201.474 69.625 201.58 69.4148 201.58 69.1364V69.0852C201.58 68.5455 201.409 68.1278 201.068 67.8324C200.733 67.5369 200.256 67.3892 199.636 67.3892C198.983 67.3892 198.463 67.5341 198.077 67.8239C197.69 68.108 197.435 68.4659 197.31 68.8977L193.952 68.625C194.122 67.8295 194.457 67.142 194.957 66.5625C195.457 65.9773 196.102 65.5284 196.892 65.2159C197.688 64.8977 198.608 64.7386 199.653 64.7386C200.381 64.7386 201.077 64.8239 201.741 64.9943C202.412 65.1648 203.006 65.429 203.523 65.7869C204.045 66.1449 204.457 66.6051 204.759 67.1676C205.06 67.7244 205.21 68.392 205.21 69.1705V78H201.767V76.1847H201.665C201.455 76.5938 201.173 76.9545 200.821 77.267C200.469 77.5739 200.045 77.8153 199.551 77.9915C199.057 78.1619 198.486 78.2472 197.838 78.2472ZM198.878 75.7415C199.412 75.7415 199.884 75.6364 200.293 75.4261C200.702 75.2102 201.023 74.9205 201.256 74.5568C201.489 74.1932 201.605 73.7812 201.605 73.321V71.9318C201.491 72.0057 201.335 72.0739 201.136 72.1364C200.943 72.1932 200.724 72.2472 200.48 72.2983C200.236 72.3437 199.991 72.3864 199.747 72.4261C199.503 72.4602 199.281 72.4915 199.082 72.5199C198.656 72.5824 198.284 72.6818 197.966 72.8182C197.648 72.9545 197.401 73.1392 197.224 73.3722C197.048 73.5994 196.96 73.8835 196.96 74.2244C196.96 74.7188 197.139 75.0966 197.497 75.358C197.861 75.6136 198.321 75.7415 198.878 75.7415ZM208.027 78V64.9091H211.547V67.1932H211.683C211.922 66.3807 212.322 65.767 212.885 65.3523C213.447 64.9318 214.095 64.7216 214.828 64.7216C215.01 64.7216 215.206 64.733 215.416 64.7557C215.626 64.7784 215.811 64.8097 215.97 64.8494V68.071C215.8 68.0199 215.564 67.9744 215.263 67.9347C214.962 67.8949 214.686 67.875 214.436 67.875C213.902 67.875 213.425 67.9915 213.004 68.2244C212.589 68.4517 212.26 68.7699 212.016 69.179C211.777 69.5881 211.658 70.0597 211.658 70.5938V78H208.027ZM226.624 60.5455L230.842 73.8068H231.004L235.232 60.5455H239.322L233.305 78H228.55L222.524 60.5455H226.624ZM243.635 78.2472C242.8 78.2472 242.055 78.1023 241.402 77.8125C240.749 77.517 240.232 77.0824 239.851 76.5085C239.476 75.929 239.288 75.2074 239.288 74.3438C239.288 73.6165 239.422 73.0057 239.689 72.5114C239.956 72.017 240.32 71.6193 240.78 71.3182C241.24 71.017 241.763 70.7898 242.348 70.6364C242.939 70.483 243.558 70.375 244.206 70.3125C244.967 70.233 245.581 70.1591 246.047 70.0909C246.513 70.017 246.851 69.9091 247.061 69.767C247.271 69.625 247.376 69.4148 247.376 69.1364V69.0852C247.376 68.5455 247.206 68.1278 246.865 67.8324C246.53 67.5369 246.053 67.3892 245.433 67.3892C244.78 67.3892 244.26 67.5341 243.874 67.8239C243.487 68.108 243.232 68.4659 243.107 68.8977L239.749 68.625C239.919 67.8295 240.254 67.142 240.754 66.5625C241.254 65.9773 241.899 65.5284 242.689 65.2159C243.484 64.8977 244.405 64.7386 245.45 64.7386C246.178 64.7386 246.874 64.8239 247.538 64.9943C248.209 65.1648 248.803 65.429 249.32 65.7869C249.842 66.1449 250.254 66.6051 250.555 67.1676C250.857 67.7244 251.007 68.392 251.007 69.1705V78H247.564V76.1847H247.462C247.251 76.5938 246.97 76.9545 246.618 77.267C246.266 77.5739 245.842 77.8153 245.348 77.9915C244.854 78.1619 244.283 78.2472 243.635 78.2472ZM244.675 75.7415C245.209 75.7415 245.68 75.6364 246.089 75.4261C246.499 75.2102 246.82 74.9205 247.053 74.5568C247.286 74.1932 247.402 73.7812 247.402 73.321V71.9318C247.288 72.0057 247.132 72.0739 246.933 72.1364C246.74 72.1932 246.521 72.2472 246.277 72.2983C246.033 72.3437 245.788 72.3864 245.544 72.4261C245.3 72.4602 245.078 72.4915 244.879 72.5199C244.453 72.5824 244.081 72.6818 243.763 72.8182C243.445 72.9545 243.197 73.1392 243.021 73.3722C242.845 73.5994 242.757 73.8835 242.757 74.2244C242.757 74.7188 242.936 75.0966 243.294 75.358C243.658 75.6136 244.118 75.7415 244.675 75.7415ZM257.455 60.5455V78H253.824V60.5455H257.455ZM263.994 60.5455V78H260.363V60.5455H263.994ZM272.868 78.2557C271.521 78.2557 270.362 77.983 269.391 77.4375C268.425 76.8864 267.68 76.108 267.158 75.1023C266.635 74.0909 266.374 72.8949 266.374 71.5142C266.374 70.1676 266.635 68.9858 267.158 67.9688C267.68 66.9517 268.416 66.1591 269.365 65.5909C270.32 65.0227 271.439 64.7386 272.723 64.7386C273.587 64.7386 274.391 64.8778 275.135 65.1562C275.885 65.429 276.538 65.8409 277.095 66.392C277.658 66.9432 278.095 67.6364 278.408 68.4716C278.72 69.3011 278.876 70.2727 278.876 71.3864V72.3835H267.822V70.1335H275.459C275.459 69.6108 275.345 69.1477 275.118 68.7443C274.891 68.3409 274.575 68.0256 274.172 67.7983C273.774 67.5653 273.311 67.4489 272.783 67.4489C272.232 67.4489 271.743 67.5767 271.317 67.8324C270.896 68.0824 270.567 68.4205 270.328 68.8466C270.089 69.267 269.967 69.7358 269.962 70.2528V72.392C269.962 73.0398 270.081 73.5994 270.32 74.071C270.564 74.5426 270.908 74.9062 271.351 75.1619C271.794 75.4176 272.32 75.5455 272.928 75.5455C273.331 75.5455 273.7 75.4886 274.036 75.375C274.371 75.2614 274.658 75.0909 274.896 74.8636C275.135 74.6364 275.317 74.358 275.442 74.0284L278.8 74.25C278.629 75.0568 278.28 75.7614 277.751 76.3636C277.229 76.9602 276.553 77.4261 275.723 77.7614C274.899 78.0909 273.947 78.2557 272.868 78.2557ZM281.246 64.9091H284.876V78.6477C284.876 79.6591 284.678 80.4773 284.28 81.1023C283.882 81.7273 283.311 82.1847 282.567 82.4744C281.828 82.7642 280.945 82.9091 279.916 82.9091C279.791 82.9091 279.672 82.9063 279.558 82.9006C279.439 82.9006 279.314 82.8977 279.183 82.892V80.054C279.28 80.0597 279.365 80.0625 279.439 80.0625C279.507 80.0682 279.581 80.071 279.661 80.071C280.246 80.071 280.655 79.946 280.888 79.696C281.126 79.4517 281.246 79.0824 281.246 78.5881V64.9091ZM283.053 63.2216C282.518 63.2216 282.058 63.0426 281.672 62.6847C281.286 62.321 281.092 61.8864 281.092 61.3807C281.092 60.8807 281.286 60.4517 281.672 60.0938C282.058 59.7301 282.518 59.5483 283.053 59.5483C283.598 59.5483 284.061 59.7301 284.442 60.0938C284.828 60.4517 285.021 60.8807 285.021 61.3807C285.021 61.8864 284.828 62.321 284.442 62.6847C284.061 63.0426 283.598 63.2216 283.053 63.2216ZM293.7 78.2557C292.376 78.2557 291.231 77.9744 290.265 77.4119C289.305 76.8437 288.563 76.054 288.04 75.0426C287.518 74.0256 287.256 72.8466 287.256 71.5057C287.256 70.1534 287.518 68.9716 288.04 67.9602C288.563 66.9432 289.305 66.1534 290.265 65.5909C291.231 65.0227 292.376 64.7386 293.7 64.7386C295.023 64.7386 296.165 65.0227 297.126 65.5909C298.092 66.1534 298.836 66.9432 299.359 67.9602C299.881 68.9716 300.143 70.1534 300.143 71.5057C300.143 72.8466 299.881 74.0256 299.359 75.0426C298.836 76.054 298.092 76.8437 297.126 77.4119C296.165 77.9744 295.023 78.2557 293.7 78.2557ZM293.717 75.4432C294.319 75.4432 294.822 75.2727 295.225 74.9318C295.629 74.5852 295.933 74.1136 296.137 73.517C296.347 72.9205 296.452 72.2415 296.452 71.4801C296.452 70.7188 296.347 70.0398 296.137 69.4432C295.933 68.8466 295.629 68.375 295.225 68.0284C294.822 67.6818 294.319 67.5085 293.717 67.5085C293.109 67.5085 292.597 67.6818 292.183 68.0284C291.773 68.375 291.464 68.8466 291.254 69.4432C291.049 70.0398 290.947 70.7188 290.947 71.4801C290.947 72.2415 291.049 72.9205 291.254 73.517C291.464 74.1136 291.773 74.5852 292.183 74.9318C292.597 75.2727 293.109 75.4432 293.717 75.4432ZM304.626 78.2216C304.063 78.2216 303.58 78.0227 303.177 77.625C302.779 77.2216 302.58 76.7386 302.58 76.1761C302.58 75.6193 302.779 75.142 303.177 74.7443C303.58 74.3466 304.063 74.1477 304.626 74.1477C305.171 74.1477 305.648 74.3466 306.058 74.7443C306.467 75.142 306.671 75.6193 306.671 76.1761C306.671 76.5511 306.575 76.8949 306.381 77.2074C306.194 77.5142 305.947 77.7614 305.64 77.9489C305.333 78.1307 304.995 78.2216 304.626 78.2216Z" fill="white"/>
</svg>
